<svg width="1363" height="163" viewBox="0 0 1363 163" fill="none" xmlns="http://www.w3.org/2000/svg">
<path d="M0 15C0 6.71573 6.71573 0 15 0H37V163H15C6.71573 163 0 156.284 0 148V15Z" fill="#DD2A7B"/>
<rect width="1097" height="163" transform="translate(37)" fill="#F0F0F0"/>
<path d="M101.906 53.9219L94.3945 51.2383V48.0859L104.602 52.375V54.6367L101.906 53.9219ZM94.3945 56.1719L101.918 53.4297L104.602 52.7852V55.0352L94.3945 59.3242V56.1719ZM116.637 43.9375V61H113.133V43.9375H116.637ZM123.023 51.0273V61H119.648V48.3203H122.812L123.023 51.0273ZM122.531 54.2148H121.617C121.617 53.2773 121.738 52.4336 121.98 51.6836C122.223 50.9258 122.562 50.2812 123 49.75C123.438 49.2109 123.957 48.8008 124.559 48.5195C125.168 48.2305 125.848 48.0859 126.598 48.0859C127.191 48.0859 127.734 48.1719 128.227 48.3438C128.719 48.5156 129.141 48.7891 129.492 49.1641C129.852 49.5391 130.125 50.0352 130.312 50.6523C130.508 51.2695 130.605 52.0234 130.605 52.9141V61H127.207V52.9023C127.207 52.3398 127.129 51.9023 126.973 51.5898C126.816 51.2773 126.586 51.0586 126.281 50.9336C125.984 50.8008 125.617 50.7344 125.18 50.7344C124.727 50.7344 124.332 50.8242 123.996 51.0039C123.668 51.1836 123.395 51.4336 123.176 51.7539C122.965 52.0664 122.805 52.4336 122.695 52.8555C122.586 53.2773 122.531 53.7305 122.531 54.2148ZM140.027 57.4961C140.027 57.2539 139.957 57.0352 139.816 56.8398C139.676 56.6445 139.414 56.4648 139.031 56.3008C138.656 56.1289 138.113 55.9727 137.402 55.832C136.762 55.6914 136.164 55.5156 135.609 55.3047C135.062 55.0859 134.586 54.8242 134.18 54.5195C133.781 54.2148 133.469 53.8555 133.242 53.4414C133.016 53.0195 132.902 52.5391 132.902 52C132.902 51.4688 133.016 50.9688 133.242 50.5C133.477 50.0312 133.809 49.6172 134.238 49.2578C134.676 48.8906 135.207 48.6055 135.832 48.4023C136.465 48.1914 137.176 48.0859 137.965 48.0859C139.066 48.0859 140.012 48.2617 140.801 48.6133C141.598 48.9648 142.207 49.4492 142.629 50.0664C143.059 50.6758 143.273 51.3711 143.273 52.1523H139.898C139.898 51.8242 139.828 51.5312 139.688 51.2734C139.555 51.0078 139.344 50.8008 139.055 50.6523C138.773 50.4961 138.406 50.418 137.953 50.418C137.578 50.418 137.254 50.4844 136.98 50.6172C136.707 50.7422 136.496 50.9141 136.348 51.1328C136.207 51.3438 136.137 51.5781 136.137 51.8359C136.137 52.0312 136.176 52.207 136.254 52.3633C136.34 52.5117 136.477 52.6484 136.664 52.7734C136.852 52.8984 137.094 53.0156 137.391 53.125C137.695 53.2266 138.07 53.3203 138.516 53.4062C139.43 53.5938 140.246 53.8398 140.965 54.1445C141.684 54.4414 142.254 54.8477 142.676 55.3633C143.098 55.8711 143.309 56.5391 143.309 57.3672C143.309 57.9297 143.184 58.4453 142.934 58.9141C142.684 59.3828 142.324 59.793 141.855 60.1445C141.387 60.4883 140.824 60.7578 140.168 60.9531C139.52 61.1406 138.789 61.2344 137.977 61.2344C136.797 61.2344 135.797 61.0234 134.977 60.6016C134.164 60.1797 133.547 59.6445 133.125 58.9961C132.711 58.3398 132.504 57.668 132.504 56.9805H135.703C135.719 57.4414 135.836 57.8125 136.055 58.0938C136.281 58.375 136.566 58.5781 136.91 58.7031C137.262 58.8281 137.641 58.8906 138.047 58.8906C138.484 58.8906 138.848 58.832 139.137 58.7148C139.426 58.5898 139.645 58.4258 139.793 58.2227C139.949 58.0117 140.027 57.7695 140.027 57.4961ZM151.711 48.3203V50.7109H144.328V48.3203H151.711ZM146.156 45.1914H149.531V57.1797C149.531 57.5469 149.578 57.8281 149.672 58.0234C149.773 58.2188 149.922 58.3555 150.117 58.4336C150.312 58.5039 150.559 58.5391 150.855 58.5391C151.066 58.5391 151.254 58.5312 151.418 58.5156C151.59 58.4922 151.734 58.4688 151.852 58.4453L151.863 60.9297C151.574 61.0234 151.262 61.0977 150.926 61.1523C150.59 61.207 150.219 61.2344 149.812 61.2344C149.07 61.2344 148.422 61.1133 147.867 60.8711C147.32 60.6211 146.898 60.2227 146.602 59.6758C146.305 59.1289 146.156 58.4102 146.156 57.5195V45.1914ZM160.477 58.1406V52.4922C160.477 52.0859 160.41 51.7383 160.277 51.4492C160.145 51.1523 159.938 50.9219 159.656 50.7578C159.383 50.5938 159.027 50.5117 158.59 50.5117C158.215 50.5117 157.891 50.5781 157.617 50.7109C157.344 50.8359 157.133 51.0195 156.984 51.2617C156.836 51.4961 156.762 51.7734 156.762 52.0938H153.387C153.387 51.5547 153.512 51.043 153.762 50.5586C154.012 50.0742 154.375 49.6484 154.852 49.2812C155.328 48.9062 155.895 48.6133 156.551 48.4023C157.215 48.1914 157.957 48.0859 158.777 48.0859C159.762 48.0859 160.637 48.25 161.402 48.5781C162.168 48.9062 162.77 49.3984 163.207 50.0547C163.652 50.7109 163.875 51.5312 163.875 52.5156V57.9414C163.875 58.6367 163.918 59.207 164.004 59.6523C164.09 60.0898 164.215 60.4727 164.379 60.8008V61H160.969C160.805 60.6562 160.68 60.2266 160.594 59.7109C160.516 59.1875 160.477 58.6641 160.477 58.1406ZM160.922 53.2773L160.945 55.1875H159.059C158.613 55.1875 158.227 55.2383 157.898 55.3398C157.57 55.4414 157.301 55.5859 157.09 55.7734C156.879 55.9531 156.723 56.1641 156.621 56.4062C156.527 56.6484 156.48 56.9141 156.48 57.2031C156.48 57.4922 156.547 57.7539 156.68 57.9883C156.812 58.2148 157.004 58.3945 157.254 58.5273C157.504 58.6523 157.797 58.7148 158.133 58.7148C158.641 58.7148 159.082 58.6133 159.457 58.4102C159.832 58.207 160.121 57.957 160.324 57.6602C160.535 57.3633 160.645 57.082 160.652 56.8164L161.543 58.2461C161.418 58.5664 161.246 58.8984 161.027 59.2422C160.816 59.5859 160.547 59.9102 160.219 60.2148C159.891 60.5117 159.496 60.7578 159.035 60.9531C158.574 61.1406 158.027 61.2344 157.395 61.2344C156.59 61.2344 155.859 61.0742 155.203 60.7539C154.555 60.4258 154.039 59.9766 153.656 59.4062C153.281 58.8281 153.094 58.1719 153.094 57.4375C153.094 56.7734 153.219 56.1836 153.469 55.668C153.719 55.1523 154.086 54.7188 154.57 54.3672C155.062 54.0078 155.676 53.7383 156.41 53.5586C157.145 53.3711 157.996 53.2773 158.965 53.2773H160.922ZM174.504 48.3203H177.562V60.5781C177.562 61.7344 177.305 62.7148 176.789 63.5195C176.281 64.332 175.57 64.9453 174.656 65.3594C173.742 65.7812 172.68 65.9922 171.469 65.9922C170.938 65.9922 170.375 65.9219 169.781 65.7812C169.195 65.6406 168.633 65.4219 168.094 65.125C167.562 64.8281 167.117 64.4531 166.758 64L168.246 62.0078C168.637 62.4609 169.09 62.8125 169.605 63.0625C170.121 63.3203 170.691 63.4492 171.316 63.4492C171.926 63.4492 172.441 63.3359 172.863 63.1094C173.285 62.8906 173.609 62.5664 173.836 62.1367C174.062 61.7148 174.176 61.2031 174.176 60.6016V51.25L174.504 48.3203ZM165.973 54.8125V54.5664C165.973 53.5977 166.09 52.7188 166.324 51.9297C166.566 51.1328 166.906 50.4492 167.344 49.8789C167.789 49.3086 168.328 48.8672 168.961 48.5547C169.594 48.2422 170.309 48.0859 171.105 48.0859C171.949 48.0859 172.656 48.2422 173.227 48.5547C173.797 48.8672 174.266 49.3125 174.633 49.8906C175 50.4609 175.285 51.1367 175.488 51.918C175.699 52.6914 175.863 53.5391 175.98 54.4609V55C175.863 55.8828 175.688 56.7031 175.453 57.4609C175.219 58.2188 174.91 58.8828 174.527 59.4531C174.145 60.0156 173.668 60.4531 173.098 60.7656C172.535 61.0781 171.863 61.2344 171.082 61.2344C170.301 61.2344 169.594 61.0742 168.961 60.7539C168.336 60.4336 167.801 59.9844 167.355 59.4062C166.91 58.8281 166.566 58.1484 166.324 57.3672C166.09 56.5859 165.973 55.7344 165.973 54.8125ZM169.348 54.5664V54.8125C169.348 55.3359 169.398 55.8242 169.5 56.2773C169.602 56.7305 169.758 57.1328 169.969 57.4844C170.188 57.8281 170.457 58.0977 170.777 58.293C171.105 58.4805 171.492 58.5742 171.938 58.5742C172.555 58.5742 173.059 58.4453 173.449 58.1875C173.84 57.9219 174.133 57.5586 174.328 57.0977C174.523 56.6367 174.637 56.1055 174.668 55.5039V53.9688C174.652 53.4766 174.586 53.0352 174.469 52.6445C174.352 52.2461 174.188 51.9062 173.977 51.625C173.766 51.3438 173.492 51.125 173.156 50.9688C172.82 50.8125 172.422 50.7344 171.961 50.7344C171.516 50.7344 171.129 50.8359 170.801 51.0391C170.48 51.2344 170.211 51.5039 169.992 51.8477C169.781 52.1914 169.621 52.5977 169.512 53.0664C169.402 53.5273 169.348 54.0273 169.348 54.5664ZM183.562 51.0859V61H180.188V48.3203H183.363L183.562 51.0859ZM187.383 48.2383L187.324 51.3672C187.16 51.3438 186.961 51.3242 186.727 51.3086C186.5 51.2852 186.293 51.2734 186.105 51.2734C185.629 51.2734 185.215 51.3359 184.863 51.4609C184.52 51.5781 184.23 51.7539 183.996 51.9883C183.77 52.2227 183.598 52.5078 183.48 52.8438C183.371 53.1797 183.309 53.5625 183.293 53.9922L182.613 53.7812C182.613 52.9609 182.695 52.207 182.859 51.5195C183.023 50.8242 183.262 50.2188 183.574 49.7031C183.895 49.1875 184.285 48.7891 184.746 48.5078C185.207 48.2266 185.734 48.0859 186.328 48.0859C186.516 48.0859 186.707 48.1016 186.902 48.1328C187.098 48.1562 187.258 48.1914 187.383 48.2383ZM195.422 58.1406V52.4922C195.422 52.0859 195.355 51.7383 195.223 51.4492C195.09 51.1523 194.883 50.9219 194.602 50.7578C194.328 50.5938 193.973 50.5117 193.535 50.5117C193.16 50.5117 192.836 50.5781 192.562 50.7109C192.289 50.8359 192.078 51.0195 191.93 51.2617C191.781 51.4961 191.707 51.7734 191.707 52.0938H188.332C188.332 51.5547 188.457 51.043 188.707 50.5586C188.957 50.0742 189.32 49.6484 189.797 49.2812C190.273 48.9062 190.84 48.6133 191.496 48.4023C192.16 48.1914 192.902 48.0859 193.723 48.0859C194.707 48.0859 195.582 48.25 196.348 48.5781C197.113 48.9062 197.715 49.3984 198.152 50.0547C198.598 50.7109 198.82 51.5312 198.82 52.5156V57.9414C198.82 58.6367 198.863 59.207 198.949 59.6523C199.035 60.0898 199.16 60.4727 199.324 60.8008V61H195.914C195.75 60.6562 195.625 60.2266 195.539 59.7109C195.461 59.1875 195.422 58.6641 195.422 58.1406ZM195.867 53.2773L195.891 55.1875H194.004C193.559 55.1875 193.172 55.2383 192.844 55.3398C192.516 55.4414 192.246 55.5859 192.035 55.7734C191.824 55.9531 191.668 56.1641 191.566 56.4062C191.473 56.6484 191.426 56.9141 191.426 57.2031C191.426 57.4922 191.492 57.7539 191.625 57.9883C191.758 58.2148 191.949 58.3945 192.199 58.5273C192.449 58.6523 192.742 58.7148 193.078 58.7148C193.586 58.7148 194.027 58.6133 194.402 58.4102C194.777 58.207 195.066 57.957 195.27 57.6602C195.48 57.3633 195.59 57.082 195.598 56.8164L196.488 58.2461C196.363 58.5664 196.191 58.8984 195.973 59.2422C195.762 59.5859 195.492 59.9102 195.164 60.2148C194.836 60.5117 194.441 60.7578 193.98 60.9531C193.52 61.1406 192.973 61.2344 192.34 61.2344C191.535 61.2344 190.805 61.0742 190.148 60.7539C189.5 60.4258 188.984 59.9766 188.602 59.4062C188.227 58.8281 188.039 58.1719 188.039 57.4375C188.039 56.7734 188.164 56.1836 188.414 55.668C188.664 55.1523 189.031 54.7188 189.516 54.3672C190.008 54.0078 190.621 53.7383 191.355 53.5586C192.09 53.3711 192.941 53.2773 193.91 53.2773H195.867ZM204.797 50.9453V61H201.41V48.3203H204.586L204.797 50.9453ZM204.328 54.2148H203.391C203.391 53.332 203.496 52.5195 203.707 51.7773C203.926 51.0273 204.242 50.3789 204.656 49.832C205.078 49.2773 205.598 48.8477 206.215 48.543C206.832 48.2383 207.547 48.0859 208.359 48.0859C208.922 48.0859 209.438 48.1719 209.906 48.3438C210.375 48.5078 210.777 48.7695 211.113 49.1289C211.457 49.4805 211.723 49.9414 211.91 50.5117C212.098 51.0742 212.191 51.75 212.191 52.5391V61H208.816V52.9141C208.816 52.3359 208.738 51.8906 208.582 51.5781C208.426 51.2656 208.203 51.0469 207.914 50.9219C207.633 50.7969 207.293 50.7344 206.895 50.7344C206.457 50.7344 206.074 50.8242 205.746 51.0039C205.426 51.1836 205.16 51.4336 204.949 51.7539C204.738 52.0664 204.582 52.4336 204.48 52.8555C204.379 53.2773 204.328 53.7305 204.328 54.2148ZM211.875 53.8281L210.668 53.9805C210.668 53.1523 210.77 52.3828 210.973 51.6719C211.184 50.9609 211.492 50.3359 211.898 49.7969C212.312 49.2578 212.824 48.8398 213.434 48.543C214.043 48.2383 214.746 48.0859 215.543 48.0859C216.152 48.0859 216.707 48.1758 217.207 48.3555C217.707 48.5273 218.133 48.8047 218.484 49.1875C218.844 49.5625 219.117 50.0547 219.305 50.6641C219.5 51.2734 219.598 52.0195 219.598 52.9023V61H216.211V52.9023C216.211 52.3164 216.133 51.8711 215.977 51.5664C215.828 51.2539 215.609 51.0391 215.32 50.9219C215.039 50.7969 214.703 50.7344 214.312 50.7344C213.906 50.7344 213.551 50.8164 213.246 50.9805C212.941 51.1367 212.688 51.3555 212.484 51.6367C212.281 51.918 212.129 52.2461 212.027 52.6211C211.926 52.9883 211.875 53.3906 211.875 53.8281ZM233.426 58.5977C233.84 58.5977 234.207 58.5195 234.527 58.3633C234.848 58.1992 235.098 57.9727 235.277 57.6836C235.465 57.3867 235.562 57.0391 235.57 56.6406H238.746C238.738 57.5312 238.5 58.3242 238.031 59.0195C237.562 59.707 236.934 60.25 236.145 60.6484C235.355 61.0391 234.473 61.2344 233.496 61.2344C232.512 61.2344 231.652 61.0703 230.918 60.7422C230.191 60.4141 229.586 59.9609 229.102 59.3828C228.617 58.7969 228.254 58.1172 228.012 57.3438C227.77 56.5625 227.648 55.7266 227.648 54.8359V54.4961C227.648 53.5977 227.77 52.7617 228.012 51.9883C228.254 51.207 228.617 50.5273 229.102 49.9492C229.586 49.3633 230.191 48.9062 230.918 48.5781C231.645 48.25 232.496 48.0859 233.473 48.0859C234.512 48.0859 235.422 48.2852 236.203 48.6836C236.992 49.082 237.609 49.6523 238.055 50.3945C238.508 51.1289 238.738 52 238.746 53.0078H235.57C235.562 52.5859 235.473 52.2031 235.301 51.8594C235.137 51.5156 234.895 51.2422 234.574 51.0391C234.262 50.8281 233.875 50.7227 233.414 50.7227C232.922 50.7227 232.52 50.8281 232.207 51.0391C231.895 51.2422 231.652 51.5234 231.48 51.8828C231.309 52.2344 231.188 52.6367 231.117 53.0898C231.055 53.5352 231.023 54.0039 231.023 54.4961V54.8359C231.023 55.3281 231.055 55.8008 231.117 56.2539C231.18 56.707 231.297 57.1094 231.469 57.4609C231.648 57.8125 231.895 58.0898 232.207 58.293C232.52 58.4961 232.926 58.5977 233.426 58.5977ZM244.266 43V61H240.879V43H244.266ZM246.516 54.7891V54.543C246.516 53.6133 246.648 52.7578 246.914 51.9766C247.18 51.1875 247.566 50.5039 248.074 49.9258C248.582 49.3477 249.207 48.8984 249.949 48.5781C250.691 48.25 251.543 48.0859 252.504 48.0859C253.465 48.0859 254.32 48.25 255.07 48.5781C255.82 48.8984 256.449 49.3477 256.957 49.9258C257.473 50.5039 257.863 51.1875 258.129 51.9766C258.395 52.7578 258.527 53.6133 258.527 54.543V54.7891C258.527 55.7109 258.395 56.5664 258.129 57.3555C257.863 58.1367 257.473 58.8203 256.957 59.4062C256.449 59.9844 255.824 60.4336 255.082 60.7539C254.34 61.0742 253.488 61.2344 252.527 61.2344C251.566 61.2344 250.711 61.0742 249.961 60.7539C249.219 60.4336 248.59 59.9844 248.074 59.4062C247.566 58.8203 247.18 58.1367 246.914 57.3555C246.648 56.5664 246.516 55.7109 246.516 54.7891ZM249.891 54.543V54.7891C249.891 55.3203 249.938 55.8164 250.031 56.2773C250.125 56.7383 250.273 57.1445 250.477 57.4961C250.688 57.8398 250.961 58.1094 251.297 58.3047C251.633 58.5 252.043 58.5977 252.527 58.5977C252.996 58.5977 253.398 58.5 253.734 58.3047C254.07 58.1094 254.34 57.8398 254.543 57.4961C254.746 57.1445 254.895 56.7383 254.988 56.2773C255.09 55.8164 255.141 55.3203 255.141 54.7891V54.543C255.141 54.0273 255.09 53.543 254.988 53.0898C254.895 52.6289 254.742 52.2227 254.531 51.8711C254.328 51.5117 254.059 51.2305 253.723 51.0273C253.387 50.8242 252.98 50.7227 252.504 50.7227C252.027 50.7227 251.621 50.8242 251.285 51.0273C250.957 51.2305 250.688 51.5117 250.477 51.8711C250.273 52.2227 250.125 52.6289 250.031 53.0898C249.938 53.543 249.891 54.0273 249.891 54.543ZM263.906 51.0273V61H260.531V48.3203H263.695L263.906 51.0273ZM263.414 54.2148H262.5C262.5 53.2773 262.621 52.4336 262.863 51.6836C263.105 50.9258 263.445 50.2812 263.883 49.75C264.32 49.2109 264.84 48.8008 265.441 48.5195C266.051 48.2305 266.73 48.0859 267.48 48.0859C268.074 48.0859 268.617 48.1719 269.109 48.3438C269.602 48.5156 270.023 48.7891 270.375 49.1641C270.734 49.5391 271.008 50.0352 271.195 50.6523C271.391 51.2695 271.488 52.0234 271.488 52.9141V61H268.09V52.9023C268.09 52.3398 268.012 51.9023 267.855 51.5898C267.699 51.2773 267.469 51.0586 267.164 50.9336C266.867 50.8008 266.5 50.7344 266.062 50.7344C265.609 50.7344 265.215 50.8242 264.879 51.0039C264.551 51.1836 264.277 51.4336 264.059 51.7539C263.848 52.0664 263.688 52.4336 263.578 52.8555C263.469 53.2773 263.414 53.7305 263.414 54.2148ZM279.891 61.2344C278.906 61.2344 278.023 61.0781 277.242 60.7656C276.461 60.4453 275.797 60.0039 275.25 59.4414C274.711 58.8789 274.297 58.2266 274.008 57.4844C273.719 56.7344 273.574 55.9375 273.574 55.0938V54.625C273.574 53.6641 273.711 52.7852 273.984 51.9883C274.258 51.1914 274.648 50.5 275.156 49.9141C275.672 49.3281 276.297 48.8789 277.031 48.5664C277.766 48.2461 278.594 48.0859 279.516 48.0859C280.414 48.0859 281.211 48.2344 281.906 48.5312C282.602 48.8281 283.184 49.25 283.652 49.7969C284.129 50.3438 284.488 51 284.73 51.7656C284.973 52.5234 285.094 53.3672 285.094 54.2969V55.7031H275.016V53.4531H281.777V53.1953C281.777 52.7266 281.691 52.3086 281.52 51.9414C281.355 51.5664 281.105 51.2695 280.77 51.0508C280.434 50.832 280.004 50.7227 279.48 50.7227C279.035 50.7227 278.652 50.8203 278.332 51.0156C278.012 51.2109 277.75 51.4844 277.547 51.8359C277.352 52.1875 277.203 52.6016 277.102 53.0781C277.008 53.5469 276.961 54.0625 276.961 54.625V55.0938C276.961 55.6016 277.031 56.0703 277.172 56.5C277.32 56.9297 277.527 57.3008 277.793 57.6133C278.066 57.9258 278.395 58.168 278.777 58.3398C279.168 58.5117 279.609 58.5977 280.102 58.5977C280.711 58.5977 281.277 58.4805 281.801 58.2461C282.332 58.0039 282.789 57.6406 283.172 57.1562L284.812 58.9375C284.547 59.3203 284.184 59.6875 283.723 60.0391C283.27 60.3906 282.723 60.6797 282.082 60.9062C281.441 61.125 280.711 61.2344 279.891 61.2344Z" fill="#888888"/>
<path d="M106.688 119H99.1172L99.1641 112.672H106.688C108.25 112.672 109.57 112.297 110.648 111.547C111.742 110.797 112.57 109.68 113.133 108.195C113.711 106.695 114 104.852 114 102.664V101.188C114 99.5469 113.836 98.1094 113.508 96.875C113.195 95.625 112.727 94.5859 112.102 93.7578C111.477 92.9141 110.695 92.2812 109.758 91.8594C108.836 91.4375 107.773 91.2266 106.57 91.2266H98.9766V84.875H106.57C108.883 84.875 111 85.2734 112.922 86.0703C114.859 86.8516 116.531 87.9766 117.938 89.4453C119.359 90.8984 120.453 92.625 121.219 94.625C122 96.6094 122.391 98.8125 122.391 101.234V102.664C122.391 105.07 122 107.273 121.219 109.273C120.453 111.273 119.367 113 117.961 114.453C116.555 115.906 114.891 117.031 112.969 117.828C111.062 118.609 108.969 119 106.688 119ZM103.828 84.875V119H95.6016V84.875H103.828ZM138.586 119.469C136.523 119.469 134.68 119.148 133.055 118.508C131.43 117.852 130.055 116.953 128.93 115.812C127.82 114.672 126.969 113.359 126.375 111.875C125.797 110.391 125.508 108.82 125.508 107.164V106.273C125.508 104.414 125.766 102.695 126.281 101.117C126.797 99.5234 127.562 98.1328 128.578 96.9453C129.594 95.7578 130.867 94.8359 132.398 94.1797C133.93 93.5078 135.711 93.1719 137.742 93.1719C139.539 93.1719 141.148 93.4609 142.57 94.0391C143.992 94.6172 145.195 95.4453 146.18 96.5234C147.18 97.6016 147.938 98.9062 148.453 100.438C148.984 101.969 149.25 103.688 149.25 105.594V108.805H128.531V103.859H141.539V103.25C141.555 102.406 141.406 101.688 141.094 101.094C140.797 100.5 140.359 100.047 139.781 99.7344C139.203 99.4219 138.5 99.2656 137.672 99.2656C136.812 99.2656 136.102 99.4531 135.539 99.8281C134.992 100.203 134.562 100.719 134.25 101.375C133.953 102.016 133.742 102.758 133.617 103.602C133.492 104.445 133.43 105.336 133.43 106.273V107.164C133.43 108.102 133.555 108.953 133.805 109.719C134.07 110.484 134.445 111.141 134.93 111.688C135.43 112.219 136.023 112.633 136.711 112.93C137.414 113.227 138.211 113.375 139.102 113.375C140.18 113.375 141.242 113.172 142.289 112.766C143.336 112.359 144.234 111.688 144.984 110.75L148.57 115.016C148.055 115.75 147.32 116.461 146.367 117.148C145.43 117.836 144.305 118.398 142.992 118.836C141.68 119.258 140.211 119.469 138.586 119.469ZM160.43 99.0078V119H152.531V93.6406H159.938L160.43 99.0078ZM159.469 105.453L157.664 105.5C157.664 103.719 157.875 102.078 158.297 100.578C158.719 99.0781 159.344 97.7734 160.172 96.6641C161 95.5547 162.016 94.6953 163.219 94.0859C164.438 93.4766 165.844 93.1719 167.438 93.1719C168.547 93.1719 169.555 93.3438 170.461 93.6875C171.367 94.0156 172.148 94.5391 172.805 95.2578C173.461 95.9609 173.961 96.8828 174.305 98.0234C174.664 99.1484 174.844 100.5 174.844 102.078V119H166.945V103.086C166.945 102.008 166.82 101.195 166.57 100.648C166.336 100.102 165.992 99.7344 165.539 99.5469C165.086 99.3594 164.531 99.2656 163.875 99.2656C163.188 99.2656 162.57 99.4219 162.023 99.7344C161.477 100.047 161.008 100.484 160.617 101.047C160.242 101.594 159.953 102.242 159.75 102.992C159.562 103.742 159.469 104.562 159.469 105.453ZM173.953 105.453L171.75 105.5C171.75 103.719 171.945 102.078 172.336 100.578C172.742 99.0781 173.344 97.7734 174.141 96.6641C174.953 95.5547 175.961 94.6953 177.164 94.0859C178.367 93.4766 179.766 93.1719 181.359 93.1719C182.516 93.1719 183.578 93.3438 184.547 93.6875C185.516 94.0312 186.352 94.5859 187.055 95.3516C187.758 96.1172 188.305 97.1328 188.695 98.3984C189.086 99.6484 189.281 101.195 189.281 103.039V119H181.359V103.039C181.359 101.992 181.234 101.203 180.984 100.672C180.75 100.125 180.406 99.7578 179.953 99.5703C179.5 99.3672 178.961 99.2656 178.336 99.2656C177.586 99.2656 176.938 99.4219 176.391 99.7344C175.844 100.047 175.383 100.484 175.008 101.047C174.648 101.594 174.383 102.242 174.211 102.992C174.039 103.742 173.953 104.562 173.953 105.453ZM192.82 106.578V106.086C192.82 104.227 193.086 102.516 193.617 100.953C194.148 99.375 194.93 98.0078 195.961 96.8516C196.992 95.6953 198.266 94.7969 199.781 94.1562C201.297 93.5 203.047 93.1719 205.031 93.1719C207.031 93.1719 208.789 93.5 210.305 94.1562C211.836 94.7969 213.117 95.6953 214.148 96.8516C215.18 98.0078 215.961 99.375 216.492 100.953C217.023 102.516 217.289 104.227 217.289 106.086V106.578C217.289 108.422 217.023 110.133 216.492 111.711C215.961 113.273 215.18 114.641 214.148 115.812C213.117 116.969 211.844 117.867 210.328 118.508C208.812 119.148 207.062 119.469 205.078 119.469C203.094 119.469 201.336 119.148 199.805 118.508C198.273 117.867 196.992 116.969 195.961 115.812C194.93 114.641 194.148 113.273 193.617 111.711C193.086 110.133 192.82 108.422 192.82 106.578ZM200.719 106.086V106.578C200.719 107.531 200.789 108.422 200.93 109.25C201.07 110.078 201.305 110.805 201.633 111.43C201.961 112.039 202.406 112.516 202.969 112.859C203.531 113.203 204.234 113.375 205.078 113.375C205.906 113.375 206.594 113.203 207.141 112.859C207.703 112.516 208.148 112.039 208.477 111.43C208.805 110.805 209.039 110.078 209.18 109.25C209.32 108.422 209.391 107.531 209.391 106.578V106.086C209.391 105.164 209.32 104.297 209.18 103.484C209.039 102.656 208.805 101.93 208.477 101.305C208.148 100.664 207.703 100.164 207.141 99.8047C206.578 99.4453 205.875 99.2656 205.031 99.2656C204.203 99.2656 203.508 99.4453 202.945 99.8047C202.398 100.164 201.961 100.664 201.633 101.305C201.305 101.93 201.07 102.656 200.93 103.484C200.789 104.297 200.719 105.164 200.719 106.086Z" fill="#1D2126"/>
<path d="M1134 0H1348C1356.28 0 1363 6.71573 1363 15V148C1363 156.284 1356.28 163 1348 163H1134V0Z" fill="#DD2A7B"/>
<path d="M1281 46.5H1216L1213.5 49V114L1216 116.5H1281L1283.5 114V49L1281 46.5ZM1278.5 111.5H1233.5V101.5H1245C1246.5 104.5 1250 106.5 1253.5 106.5C1259 106.5 1263.5 102 1263.5 96.5C1263.5 91 1259 86.5 1253.5 86.5C1248 86.5 1243.5 91 1243.5 96.5H1228.5V111.5H1218.5V51.5H1228.5V63C1225.5 64.5 1223.5 68 1223.5 71.5C1223.5 77 1228 81.5 1233.5 81.5C1239 81.5 1243.5 77 1243.5 71.5H1253.5C1253.5 77 1258 81.5 1263.5 81.5C1269 81.5 1273.5 77 1273.5 71.5C1273.5 66 1269 61.5 1263.5 61.5C1260 61.5 1256.5 63.5 1255 66.5H1242C1240.5 63.5 1237 61.5 1233.5 61.5V51.5H1278.5V111.5ZM1248.5 96.5C1248.5 93.5 1250.5 91.5 1253.5 91.5C1256.5 91.5 1258.5 93.5 1258.5 96.5C1258.5 99.5 1256.5 101.5 1253.5 101.5C1250.5 101.5 1248.5 99.5 1248.5 96.5ZM1233.5 66.5C1236.5 66.5 1238.5 68.5 1238.5 71.5C1238.5 74.5 1236.5 76.5 1233.5 76.5C1230.5 76.5 1228.5 74.5 1228.5 71.5C1228.5 68.5 1230.5 66.5 1233.5 66.5ZM1263.5 66.5C1266.5 66.5 1268.5 68.5 1268.5 71.5C1268.5 74.5 1266.5 76.5 1263.5 76.5C1260.5 76.5 1258.5 74.5 1258.5 71.5C1258.5 68.5 1260.5 66.5 1263.5 66.5Z" fill="white"/>
</svg>
