<svg width="1384" height="163" viewBox="0 0 1384 163" fill="none" xmlns="http://www.w3.org/2000/svg">
<path d="M0 15C0 6.71573 6.71573 0 15 0H37V163H15C6.71573 163 0 156.284 0 148V15Z" fill="#DD2A7B"/>
<path d="M1131 0H37V163H1131V0Z" fill="#F0F0F0"/>
<path d="M112.125 84.875V119H103.898V84.875H112.125ZM122.391 84.875V91.2266H93.8672V84.875H122.391ZM134.695 112.625V102.172C134.695 101.453 134.594 100.836 134.391 100.32C134.188 99.8047 133.867 99.4062 133.43 99.125C132.992 98.8281 132.406 98.6797 131.672 98.6797C131.078 98.6797 130.57 98.7812 130.148 98.9844C129.727 99.1875 129.406 99.4922 129.188 99.8984C128.969 100.305 128.859 100.82 128.859 101.445H120.961C120.961 100.273 121.219 99.1875 121.734 98.1875C122.266 97.1719 123.016 96.2891 123.984 95.5391C124.969 94.7891 126.141 94.2109 127.5 93.8047C128.875 93.3828 130.406 93.1719 132.094 93.1719C134.109 93.1719 135.906 93.5078 137.484 94.1797C139.078 94.8516 140.336 95.8594 141.258 97.2031C142.18 98.5312 142.641 100.203 142.641 102.219V112.602C142.641 114.258 142.734 115.516 142.922 116.375C143.109 117.219 143.375 117.961 143.719 118.602V119H135.797C135.422 118.219 135.141 117.266 134.953 116.141C134.781 115 134.695 113.828 134.695 112.625ZM135.656 103.508L135.703 107.727H132.211C131.477 107.727 130.852 107.828 130.336 108.031C129.836 108.234 129.43 108.516 129.117 108.875C128.82 109.219 128.602 109.609 128.461 110.047C128.336 110.484 128.273 110.945 128.273 111.43C128.273 111.898 128.383 112.32 128.602 112.695C128.836 113.055 129.148 113.336 129.539 113.539C129.93 113.742 130.367 113.844 130.852 113.844C131.727 113.844 132.469 113.68 133.078 113.352C133.703 113.008 134.18 112.594 134.508 112.109C134.836 111.625 135 111.172 135 110.75L136.734 113.984C136.422 114.609 136.062 115.242 135.656 115.883C135.266 116.523 134.773 117.117 134.18 117.664C133.602 118.195 132.891 118.633 132.047 118.977C131.203 119.305 130.18 119.469 128.977 119.469C127.414 119.469 125.977 119.148 124.664 118.508C123.367 117.867 122.328 116.977 121.547 115.836C120.766 114.68 120.375 113.352 120.375 111.852C120.375 110.539 120.609 109.367 121.078 108.336C121.562 107.305 122.289 106.43 123.258 105.711C124.227 104.992 125.461 104.445 126.961 104.07C128.461 103.695 130.227 103.508 132.258 103.508H135.656ZM147.094 83H154.992V112.766L154.172 119H147.094V83ZM170.555 106.039V106.531C170.555 108.453 170.359 110.203 169.969 111.781C169.578 113.359 168.977 114.727 168.164 115.883C167.352 117.023 166.328 117.906 165.094 118.531C163.859 119.156 162.398 119.469 160.711 119.469C159.18 119.469 157.867 119.141 156.773 118.484C155.68 117.812 154.766 116.891 154.031 115.719C153.297 114.531 152.703 113.164 152.25 111.617C151.797 110.055 151.438 108.383 151.172 106.602V106.016C151.438 104.25 151.797 102.594 152.25 101.047C152.703 99.4844 153.297 98.1172 154.031 96.9453C154.766 95.7578 155.672 94.8359 156.75 94.1797C157.844 93.5078 159.148 93.1719 160.664 93.1719C162.367 93.1719 163.836 93.4922 165.07 94.1328C166.32 94.7734 167.352 95.6719 168.164 96.8281C168.977 97.9844 169.578 99.3438 169.969 100.906C170.359 102.469 170.555 104.18 170.555 106.039ZM162.656 106.531V106.039C162.656 105.117 162.602 104.25 162.492 103.438C162.383 102.625 162.188 101.906 161.906 101.281C161.625 100.656 161.227 100.164 160.711 99.8047C160.195 99.4453 159.523 99.2656 158.695 99.2656C157.852 99.2656 157.141 99.4062 156.562 99.6875C156 99.9688 155.547 100.375 155.203 100.906C154.875 101.422 154.641 102.062 154.5 102.828C154.359 103.578 154.297 104.43 154.312 105.383V107.234C154.281 108.531 154.398 109.641 154.664 110.562C154.93 111.484 155.391 112.188 156.047 112.672C156.703 113.156 157.602 113.398 158.742 113.398C159.586 113.398 160.266 113.234 160.781 112.906C161.312 112.578 161.711 112.109 161.977 111.5C162.242 110.891 162.422 110.164 162.516 109.32C162.609 108.477 162.656 107.547 162.656 106.531ZM182.414 83V119H174.492V83H182.414ZM199.57 119.469C197.508 119.469 195.664 119.148 194.039 118.508C192.414 117.852 191.039 116.953 189.914 115.812C188.805 114.672 187.953 113.359 187.359 111.875C186.781 110.391 186.492 108.82 186.492 107.164V106.273C186.492 104.414 186.75 102.695 187.266 101.117C187.781 99.5234 188.547 98.1328 189.562 96.9453C190.578 95.7578 191.852 94.8359 193.383 94.1797C194.914 93.5078 196.695 93.1719 198.727 93.1719C200.523 93.1719 202.133 93.4609 203.555 94.0391C204.977 94.6172 206.18 95.4453 207.164 96.5234C208.164 97.6016 208.922 98.9062 209.438 100.438C209.969 101.969 210.234 103.688 210.234 105.594V108.805H189.516V103.859H202.523V103.25C202.539 102.406 202.391 101.688 202.078 101.094C201.781 100.5 201.344 100.047 200.766 99.7344C200.188 99.4219 199.484 99.2656 198.656 99.2656C197.797 99.2656 197.086 99.4531 196.523 99.8281C195.977 100.203 195.547 100.719 195.234 101.375C194.938 102.016 194.727 102.758 194.602 103.602C194.477 104.445 194.414 105.336 194.414 106.273V107.164C194.414 108.102 194.539 108.953 194.789 109.719C195.055 110.484 195.43 111.141 195.914 111.688C196.414 112.219 197.008 112.633 197.695 112.93C198.398 113.227 199.195 113.375 200.086 113.375C201.164 113.375 202.227 113.172 203.273 112.766C204.32 112.359 205.219 111.688 205.969 110.75L209.555 115.016C209.039 115.75 208.305 116.461 207.352 117.148C206.414 117.836 205.289 118.398 203.977 118.836C202.664 119.258 201.195 119.469 199.57 119.469ZM224.414 106.578V106.086C224.414 104.227 224.68 102.516 225.211 100.953C225.742 99.375 226.523 98.0078 227.555 96.8516C228.586 95.6953 229.859 94.7969 231.375 94.1562C232.891 93.5 234.641 93.1719 236.625 93.1719C238.625 93.1719 240.383 93.5 241.898 94.1562C243.43 94.7969 244.711 95.6953 245.742 96.8516C246.773 98.0078 247.555 99.375 248.086 100.953C248.617 102.516 248.883 104.227 248.883 106.086V106.578C248.883 108.422 248.617 110.133 248.086 111.711C247.555 113.273 246.773 114.641 245.742 115.812C244.711 116.969 243.438 117.867 241.922 118.508C240.406 119.148 238.656 119.469 236.672 119.469C234.688 119.469 232.93 119.148 231.398 118.508C229.867 117.867 228.586 116.969 227.555 115.812C226.523 114.641 225.742 113.273 225.211 111.711C224.68 110.133 224.414 108.422 224.414 106.578ZM232.312 106.086V106.578C232.312 107.531 232.383 108.422 232.523 109.25C232.664 110.078 232.898 110.805 233.227 111.43C233.555 112.039 234 112.516 234.562 112.859C235.125 113.203 235.828 113.375 236.672 113.375C237.5 113.375 238.188 113.203 238.734 112.859C239.297 112.516 239.742 112.039 240.07 111.43C240.398 110.805 240.633 110.078 240.773 109.25C240.914 108.422 240.984 107.531 240.984 106.578V106.086C240.984 105.164 240.914 104.297 240.773 103.484C240.633 102.656 240.398 101.93 240.07 101.305C239.742 100.664 239.297 100.164 238.734 99.8047C238.172 99.4453 237.469 99.2656 236.625 99.2656C235.797 99.2656 235.102 99.4453 234.539 99.8047C233.992 100.164 233.555 100.664 233.227 101.305C232.898 101.93 232.664 102.656 232.523 103.484C232.383 104.297 232.312 105.164 232.312 106.086ZM262.078 119H254.133V91.5781C254.133 89.6094 254.531 87.9531 255.328 86.6094C256.125 85.2656 257.25 84.25 258.703 83.5625C260.156 82.8594 261.875 82.5078 263.859 82.5078C264.547 82.5078 265.195 82.5547 265.805 82.6484C266.414 82.7422 267.008 82.8594 267.586 83L267.609 88.8125C267.328 88.7344 267.039 88.6797 266.742 88.6484C266.445 88.6172 266.078 88.6016 265.641 88.6016C264.875 88.6016 264.227 88.7188 263.695 88.9531C263.164 89.1719 262.758 89.5078 262.477 89.9609C262.211 90.3984 262.078 90.9375 262.078 91.5781V119ZM267 93.6406V99.125H250.477V93.6406H267ZM301.57 107.445H309.773C309.664 109.82 309.023 111.914 307.852 113.727C306.68 115.539 305.055 116.953 302.977 117.969C300.914 118.969 298.477 119.469 295.664 119.469C293.383 119.469 291.344 119.086 289.547 118.32C287.766 117.555 286.25 116.453 285 115.016C283.766 113.578 282.82 111.836 282.164 109.789C281.523 107.742 281.203 105.438 281.203 102.875V101.023C281.203 98.4609 281.539 96.1562 282.211 94.1094C282.898 92.0469 283.867 90.2969 285.117 88.8594C286.383 87.4062 287.898 86.2969 289.664 85.5312C291.43 84.7656 293.391 84.3828 295.547 84.3828C298.516 84.3828 301.023 84.9141 303.07 85.9766C305.117 87.0391 306.703 88.5 307.828 90.3594C308.953 92.2031 309.617 94.3047 309.82 96.6641H301.617C301.586 95.3828 301.367 94.3125 300.961 93.4531C300.555 92.5781 299.914 91.9219 299.039 91.4844C298.164 91.0469 297 90.8281 295.547 90.8281C294.531 90.8281 293.648 91.0156 292.898 91.3906C292.148 91.7656 291.523 92.3594 291.023 93.1719C290.523 93.9844 290.148 95.0391 289.898 96.3359C289.664 97.6172 289.547 99.1641 289.547 100.977V102.875C289.547 104.688 289.656 106.234 289.875 107.516C290.094 108.797 290.445 109.844 290.93 110.656C291.414 111.469 292.039 112.07 292.805 112.461C293.586 112.836 294.539 113.023 295.664 113.023C296.914 113.023 297.969 112.828 298.828 112.438C299.688 112.031 300.352 111.422 300.82 110.609C301.289 109.781 301.539 108.727 301.57 107.445ZM312.305 106.578V106.086C312.305 104.227 312.57 102.516 313.102 100.953C313.633 99.375 314.414 98.0078 315.445 96.8516C316.477 95.6953 317.75 94.7969 319.266 94.1562C320.781 93.5 322.531 93.1719 324.516 93.1719C326.516 93.1719 328.273 93.5 329.789 94.1562C331.32 94.7969 332.602 95.6953 333.633 96.8516C334.664 98.0078 335.445 99.375 335.977 100.953C336.508 102.516 336.773 104.227 336.773 106.086V106.578C336.773 108.422 336.508 110.133 335.977 111.711C335.445 113.273 334.664 114.641 333.633 115.812C332.602 116.969 331.328 117.867 329.812 118.508C328.297 119.148 326.547 119.469 324.562 119.469C322.578 119.469 320.82 119.148 319.289 118.508C317.758 117.867 316.477 116.969 315.445 115.812C314.414 114.641 313.633 113.273 313.102 111.711C312.57 110.133 312.305 108.422 312.305 106.578ZM320.203 106.086V106.578C320.203 107.531 320.273 108.422 320.414 109.25C320.555 110.078 320.789 110.805 321.117 111.43C321.445 112.039 321.891 112.516 322.453 112.859C323.016 113.203 323.719 113.375 324.562 113.375C325.391 113.375 326.078 113.203 326.625 112.859C327.188 112.516 327.633 112.039 327.961 111.43C328.289 110.805 328.523 110.078 328.664 109.25C328.805 108.422 328.875 107.531 328.875 106.578V106.086C328.875 105.164 328.805 104.297 328.664 103.484C328.523 102.656 328.289 101.93 327.961 101.305C327.633 100.664 327.188 100.164 326.625 99.8047C326.062 99.4453 325.359 99.2656 324.516 99.2656C323.688 99.2656 322.992 99.4453 322.43 99.8047C321.883 100.164 321.445 100.664 321.117 101.305C320.789 101.93 320.555 102.656 320.414 103.484C320.273 104.297 320.203 105.164 320.203 106.086ZM348.047 99.0547V119H340.148V93.6406H347.555L348.047 99.0547ZM347.109 105.453L345.258 105.5C345.258 103.562 345.492 101.836 345.961 100.32C346.43 98.7891 347.094 97.4922 347.953 96.4297C348.812 95.3672 349.836 94.5625 351.023 94.0156C352.227 93.4531 353.562 93.1719 355.031 93.1719C356.203 93.1719 357.273 93.3438 358.242 93.6875C359.227 94.0312 360.07 94.5859 360.773 95.3516C361.492 96.1172 362.039 97.1328 362.414 98.3984C362.805 99.6484 363 101.195 363 103.039V119H355.055V103.016C355.055 102 354.914 101.227 354.633 100.695C354.352 100.148 353.945 99.7734 353.414 99.5703C352.883 99.3672 352.234 99.2656 351.469 99.2656C350.656 99.2656 349.969 99.4219 349.406 99.7344C348.844 100.047 348.391 100.484 348.047 101.047C347.719 101.594 347.477 102.242 347.32 102.992C347.18 103.742 347.109 104.562 347.109 105.453ZM380.742 93.6406V99.125H365.461V93.6406H380.742ZM368.672 87.3359H376.57V110.727C376.57 111.398 376.648 111.922 376.805 112.297C376.961 112.656 377.227 112.914 377.602 113.07C377.992 113.211 378.508 113.281 379.148 113.281C379.602 113.281 379.977 113.273 380.273 113.258C380.57 113.227 380.852 113.188 381.117 113.141V118.789C380.445 119.008 379.742 119.172 379.008 119.281C378.273 119.406 377.492 119.469 376.664 119.469C374.977 119.469 373.531 119.203 372.328 118.672C371.141 118.141 370.234 117.305 369.609 116.164C368.984 115.023 368.672 113.539 368.672 111.711V87.3359ZM396.164 119.469C394.102 119.469 392.258 119.148 390.633 118.508C389.008 117.852 387.633 116.953 386.508 115.812C385.398 114.672 384.547 113.359 383.953 111.875C383.375 110.391 383.086 108.82 383.086 107.164V106.273C383.086 104.414 383.344 102.695 383.859 101.117C384.375 99.5234 385.141 98.1328 386.156 96.9453C387.172 95.7578 388.445 94.8359 389.977 94.1797C391.508 93.5078 393.289 93.1719 395.32 93.1719C397.117 93.1719 398.727 93.4609 400.148 94.0391C401.57 94.6172 402.773 95.4453 403.758 96.5234C404.758 97.6016 405.516 98.9062 406.031 100.438C406.562 101.969 406.828 103.688 406.828 105.594V108.805H386.109V103.859H399.117V103.25C399.133 102.406 398.984 101.688 398.672 101.094C398.375 100.5 397.938 100.047 397.359 99.7344C396.781 99.4219 396.078 99.2656 395.25 99.2656C394.391 99.2656 393.68 99.4531 393.117 99.8281C392.57 100.203 392.141 100.719 391.828 101.375C391.531 102.016 391.32 102.758 391.195 103.602C391.07 104.445 391.008 105.336 391.008 106.273V107.164C391.008 108.102 391.133 108.953 391.383 109.719C391.648 110.484 392.023 111.141 392.508 111.688C393.008 112.219 393.602 112.633 394.289 112.93C394.992 113.227 395.789 113.375 396.68 113.375C397.758 113.375 398.82 113.172 399.867 112.766C400.914 112.359 401.812 111.688 402.562 110.75L406.148 115.016C405.633 115.75 404.898 116.461 403.945 117.148C403.008 117.836 401.883 118.398 400.57 118.836C399.258 119.258 397.789 119.469 396.164 119.469ZM417.797 99.0547V119H409.898V93.6406H417.305L417.797 99.0547ZM416.859 105.453L415.008 105.5C415.008 103.562 415.242 101.836 415.711 100.32C416.18 98.7891 416.844 97.4922 417.703 96.4297C418.562 95.3672 419.586 94.5625 420.773 94.0156C421.977 93.4531 423.312 93.1719 424.781 93.1719C425.953 93.1719 427.023 93.3438 427.992 93.6875C428.977 94.0312 429.82 94.5859 430.523 95.3516C431.242 96.1172 431.789 97.1328 432.164 98.3984C432.555 99.6484 432.75 101.195 432.75 103.039V119H424.805V103.016C424.805 102 424.664 101.227 424.383 100.695C424.102 100.148 423.695 99.7734 423.164 99.5703C422.633 99.3672 421.984 99.2656 421.219 99.2656C420.406 99.2656 419.719 99.4219 419.156 99.7344C418.594 100.047 418.141 100.484 417.797 101.047C417.469 101.594 417.227 102.242 417.07 102.992C416.93 103.742 416.859 104.562 416.859 105.453ZM450.492 93.6406V99.125H435.211V93.6406H450.492ZM438.422 87.3359H446.32V110.727C446.32 111.398 446.398 111.922 446.555 112.297C446.711 112.656 446.977 112.914 447.352 113.07C447.742 113.211 448.258 113.281 448.898 113.281C449.352 113.281 449.727 113.273 450.023 113.258C450.32 113.227 450.602 113.188 450.867 113.141V118.789C450.195 119.008 449.492 119.172 448.758 119.281C448.023 119.406 447.242 119.469 446.414 119.469C444.727 119.469 443.281 119.203 442.078 118.672C440.891 118.141 439.984 117.305 439.359 116.164C438.734 115.023 438.422 113.539 438.422 111.711V87.3359ZM466.922 111.875C466.922 111.438 466.773 111.062 466.477 110.75C466.195 110.422 465.695 110.125 464.977 109.859C464.258 109.578 463.25 109.297 461.953 109.016C460.719 108.75 459.555 108.398 458.461 107.961C457.383 107.523 456.438 106.992 455.625 106.367C454.812 105.742 454.172 105 453.703 104.141C453.25 103.281 453.023 102.297 453.023 101.188C453.023 100.109 453.25 99.0938 453.703 98.1406C454.172 97.1719 454.852 96.3203 455.742 95.5859C456.648 94.8359 457.75 94.25 459.047 93.8281C460.344 93.3906 461.82 93.1719 463.477 93.1719C465.758 93.1719 467.727 93.5234 469.383 94.2266C471.039 94.9141 472.312 95.8828 473.203 97.1328C474.109 98.3672 474.562 99.7969 474.562 101.422H466.664C466.664 100.781 466.555 100.234 466.336 99.7812C466.133 99.3281 465.797 98.9844 465.328 98.75C464.859 98.5 464.234 98.375 463.453 98.375C462.906 98.375 462.406 98.4766 461.953 98.6797C461.516 98.8828 461.164 99.1641 460.898 99.5234C460.633 99.8828 460.5 100.305 460.5 100.789C460.5 101.133 460.578 101.445 460.734 101.727C460.906 101.992 461.164 102.242 461.508 102.477C461.852 102.695 462.289 102.898 462.82 103.086C463.352 103.258 463.992 103.414 464.742 103.555C466.445 103.867 468.039 104.312 469.523 104.891C471.008 105.469 472.211 106.289 473.133 107.352C474.07 108.414 474.539 109.844 474.539 111.641C474.539 112.766 474.281 113.805 473.766 114.758C473.25 115.695 472.508 116.523 471.539 117.242C470.57 117.945 469.406 118.492 468.047 118.883C466.688 119.273 465.156 119.469 463.453 119.469C461.031 119.469 458.984 119.039 457.312 118.18C455.641 117.305 454.375 116.211 453.516 114.898C452.672 113.57 452.25 112.227 452.25 110.867H459.609C459.641 111.648 459.828 112.289 460.172 112.789C460.531 113.289 461.008 113.656 461.602 113.891C462.195 114.125 462.883 114.242 463.664 114.242C464.383 114.242 464.977 114.141 465.445 113.938C465.93 113.734 466.297 113.461 466.547 113.117C466.797 112.758 466.922 112.344 466.922 111.875Z" fill="#1D2126"/>
<path d="M1131 0H1345C1353.28 0 1360 6.71573 1360 15V148C1360 156.284 1353.28 163 1345 163H1131V0Z" fill="#DD2A7B"/>
<path d="M1270.5 81.5V97.125C1270.5 103.018 1270.5 105.964 1268.67 107.794C1266.84 109.625 1263.89 109.625 1258 109.625H1228.31C1224 109.625 1220.5 106.127 1220.5 101.812M1270.5 81.5C1270.5 87.3926 1270.5 90.3388 1268.67 92.1694C1266.84 94 1263.89 94 1258 94H1228.31C1224 94 1220.5 97.4978 1220.5 101.812M1270.5 81.5V65.875C1270.5 59.9824 1270.5 57.0362 1268.67 55.2056C1266.84 53.375 1263.89 53.375 1258 53.375H1233C1227.11 53.375 1224.16 53.375 1222.33 55.2056C1220.5 57.0362 1220.5 59.9824 1220.5 65.875V101.812" stroke="white" stroke-width="6.25"/>
<path d="M1236.12 69H1254.88" stroke="white" stroke-width="6.25" stroke-linecap="round"/>
<path d="M102.906 53.9219L95.3945 51.2383V48.0859L105.602 52.375V54.6367L102.906 53.9219ZM95.3945 56.1719L102.918 53.4297L105.602 52.7852V55.0352L95.3945 59.3242V56.1719ZM117.637 43.9375V61H114.133V43.9375H117.637ZM124.023 51.0273V61H120.648V48.3203H123.812L124.023 51.0273ZM123.531 54.2148H122.617C122.617 53.2773 122.738 52.4336 122.98 51.6836C123.223 50.9258 123.562 50.2812 124 49.75C124.438 49.2109 124.957 48.8008 125.559 48.5195C126.168 48.2305 126.848 48.0859 127.598 48.0859C128.191 48.0859 128.734 48.1719 129.227 48.3438C129.719 48.5156 130.141 48.7891 130.492 49.1641C130.852 49.5391 131.125 50.0352 131.312 50.6523C131.508 51.2695 131.605 52.0234 131.605 52.9141V61H128.207V52.9023C128.207 52.3398 128.129 51.9023 127.973 51.5898C127.816 51.2773 127.586 51.0586 127.281 50.9336C126.984 50.8008 126.617 50.7344 126.18 50.7344C125.727 50.7344 125.332 50.8242 124.996 51.0039C124.668 51.1836 124.395 51.4336 124.176 51.7539C123.965 52.0664 123.805 52.4336 123.695 52.8555C123.586 53.2773 123.531 53.7305 123.531 54.2148ZM141.027 57.4961C141.027 57.2539 140.957 57.0352 140.816 56.8398C140.676 56.6445 140.414 56.4648 140.031 56.3008C139.656 56.1289 139.113 55.9727 138.402 55.832C137.762 55.6914 137.164 55.5156 136.609 55.3047C136.062 55.0859 135.586 54.8242 135.18 54.5195C134.781 54.2148 134.469 53.8555 134.242 53.4414C134.016 53.0195 133.902 52.5391 133.902 52C133.902 51.4688 134.016 50.9688 134.242 50.5C134.477 50.0312 134.809 49.6172 135.238 49.2578C135.676 48.8906 136.207 48.6055 136.832 48.4023C137.465 48.1914 138.176 48.0859 138.965 48.0859C140.066 48.0859 141.012 48.2617 141.801 48.6133C142.598 48.9648 143.207 49.4492 143.629 50.0664C144.059 50.6758 144.273 51.3711 144.273 52.1523H140.898C140.898 51.8242 140.828 51.5312 140.688 51.2734C140.555 51.0078 140.344 50.8008 140.055 50.6523C139.773 50.4961 139.406 50.418 138.953 50.418C138.578 50.418 138.254 50.4844 137.98 50.6172C137.707 50.7422 137.496 50.9141 137.348 51.1328C137.207 51.3438 137.137 51.5781 137.137 51.8359C137.137 52.0312 137.176 52.207 137.254 52.3633C137.34 52.5117 137.477 52.6484 137.664 52.7734C137.852 52.8984 138.094 53.0156 138.391 53.125C138.695 53.2266 139.07 53.3203 139.516 53.4062C140.43 53.5938 141.246 53.8398 141.965 54.1445C142.684 54.4414 143.254 54.8477 143.676 55.3633C144.098 55.8711 144.309 56.5391 144.309 57.3672C144.309 57.9297 144.184 58.4453 143.934 58.9141C143.684 59.3828 143.324 59.793 142.855 60.1445C142.387 60.4883 141.824 60.7578 141.168 60.9531C140.52 61.1406 139.789 61.2344 138.977 61.2344C137.797 61.2344 136.797 61.0234 135.977 60.6016C135.164 60.1797 134.547 59.6445 134.125 58.9961C133.711 58.3398 133.504 57.668 133.504 56.9805H136.703C136.719 57.4414 136.836 57.8125 137.055 58.0938C137.281 58.375 137.566 58.5781 137.91 58.7031C138.262 58.8281 138.641 58.8906 139.047 58.8906C139.484 58.8906 139.848 58.832 140.137 58.7148C140.426 58.5898 140.645 58.4258 140.793 58.2227C140.949 58.0117 141.027 57.7695 141.027 57.4961ZM152.711 48.3203V50.7109H145.328V48.3203H152.711ZM147.156 45.1914H150.531V57.1797C150.531 57.5469 150.578 57.8281 150.672 58.0234C150.773 58.2188 150.922 58.3555 151.117 58.4336C151.312 58.5039 151.559 58.5391 151.855 58.5391C152.066 58.5391 152.254 58.5312 152.418 58.5156C152.59 58.4922 152.734 58.4688 152.852 58.4453L152.863 60.9297C152.574 61.0234 152.262 61.0977 151.926 61.1523C151.59 61.207 151.219 61.2344 150.812 61.2344C150.07 61.2344 149.422 61.1133 148.867 60.8711C148.32 60.6211 147.898 60.2227 147.602 59.6758C147.305 59.1289 147.156 58.4102 147.156 57.5195V45.1914ZM161.477 58.1406V52.4922C161.477 52.0859 161.41 51.7383 161.277 51.4492C161.145 51.1523 160.938 50.9219 160.656 50.7578C160.383 50.5938 160.027 50.5117 159.59 50.5117C159.215 50.5117 158.891 50.5781 158.617 50.7109C158.344 50.8359 158.133 51.0195 157.984 51.2617C157.836 51.4961 157.762 51.7734 157.762 52.0938H154.387C154.387 51.5547 154.512 51.043 154.762 50.5586C155.012 50.0742 155.375 49.6484 155.852 49.2812C156.328 48.9062 156.895 48.6133 157.551 48.4023C158.215 48.1914 158.957 48.0859 159.777 48.0859C160.762 48.0859 161.637 48.25 162.402 48.5781C163.168 48.9062 163.77 49.3984 164.207 50.0547C164.652 50.7109 164.875 51.5312 164.875 52.5156V57.9414C164.875 58.6367 164.918 59.207 165.004 59.6523C165.09 60.0898 165.215 60.4727 165.379 60.8008V61H161.969C161.805 60.6562 161.68 60.2266 161.594 59.7109C161.516 59.1875 161.477 58.6641 161.477 58.1406ZM161.922 53.2773L161.945 55.1875H160.059C159.613 55.1875 159.227 55.2383 158.898 55.3398C158.57 55.4414 158.301 55.5859 158.09 55.7734C157.879 55.9531 157.723 56.1641 157.621 56.4062C157.527 56.6484 157.48 56.9141 157.48 57.2031C157.48 57.4922 157.547 57.7539 157.68 57.9883C157.812 58.2148 158.004 58.3945 158.254 58.5273C158.504 58.6523 158.797 58.7148 159.133 58.7148C159.641 58.7148 160.082 58.6133 160.457 58.4102C160.832 58.207 161.121 57.957 161.324 57.6602C161.535 57.3633 161.645 57.082 161.652 56.8164L162.543 58.2461C162.418 58.5664 162.246 58.8984 162.027 59.2422C161.816 59.5859 161.547 59.9102 161.219 60.2148C160.891 60.5117 160.496 60.7578 160.035 60.9531C159.574 61.1406 159.027 61.2344 158.395 61.2344C157.59 61.2344 156.859 61.0742 156.203 60.7539C155.555 60.4258 155.039 59.9766 154.656 59.4062C154.281 58.8281 154.094 58.1719 154.094 57.4375C154.094 56.7734 154.219 56.1836 154.469 55.668C154.719 55.1523 155.086 54.7188 155.57 54.3672C156.062 54.0078 156.676 53.7383 157.41 53.5586C158.145 53.3711 158.996 53.2773 159.965 53.2773H161.922ZM175.504 48.3203H178.562V60.5781C178.562 61.7344 178.305 62.7148 177.789 63.5195C177.281 64.332 176.57 64.9453 175.656 65.3594C174.742 65.7812 173.68 65.9922 172.469 65.9922C171.938 65.9922 171.375 65.9219 170.781 65.7812C170.195 65.6406 169.633 65.4219 169.094 65.125C168.562 64.8281 168.117 64.4531 167.758 64L169.246 62.0078C169.637 62.4609 170.09 62.8125 170.605 63.0625C171.121 63.3203 171.691 63.4492 172.316 63.4492C172.926 63.4492 173.441 63.3359 173.863 63.1094C174.285 62.8906 174.609 62.5664 174.836 62.1367C175.062 61.7148 175.176 61.2031 175.176 60.6016V51.25L175.504 48.3203ZM166.973 54.8125V54.5664C166.973 53.5977 167.09 52.7188 167.324 51.9297C167.566 51.1328 167.906 50.4492 168.344 49.8789C168.789 49.3086 169.328 48.8672 169.961 48.5547C170.594 48.2422 171.309 48.0859 172.105 48.0859C172.949 48.0859 173.656 48.2422 174.227 48.5547C174.797 48.8672 175.266 49.3125 175.633 49.8906C176 50.4609 176.285 51.1367 176.488 51.918C176.699 52.6914 176.863 53.5391 176.98 54.4609V55C176.863 55.8828 176.688 56.7031 176.453 57.4609C176.219 58.2188 175.91 58.8828 175.527 59.4531C175.145 60.0156 174.668 60.4531 174.098 60.7656C173.535 61.0781 172.863 61.2344 172.082 61.2344C171.301 61.2344 170.594 61.0742 169.961 60.7539C169.336 60.4336 168.801 59.9844 168.355 59.4062C167.91 58.8281 167.566 58.1484 167.324 57.3672C167.09 56.5859 166.973 55.7344 166.973 54.8125ZM170.348 54.5664V54.8125C170.348 55.3359 170.398 55.8242 170.5 56.2773C170.602 56.7305 170.758 57.1328 170.969 57.4844C171.188 57.8281 171.457 58.0977 171.777 58.293C172.105 58.4805 172.492 58.5742 172.938 58.5742C173.555 58.5742 174.059 58.4453 174.449 58.1875C174.84 57.9219 175.133 57.5586 175.328 57.0977C175.523 56.6367 175.637 56.1055 175.668 55.5039V53.9688C175.652 53.4766 175.586 53.0352 175.469 52.6445C175.352 52.2461 175.188 51.9062 174.977 51.625C174.766 51.3438 174.492 51.125 174.156 50.9688C173.82 50.8125 173.422 50.7344 172.961 50.7344C172.516 50.7344 172.129 50.8359 171.801 51.0391C171.48 51.2344 171.211 51.5039 170.992 51.8477C170.781 52.1914 170.621 52.5977 170.512 53.0664C170.402 53.5273 170.348 54.0273 170.348 54.5664ZM184.562 51.0859V61H181.188V48.3203H184.363L184.562 51.0859ZM188.383 48.2383L188.324 51.3672C188.16 51.3438 187.961 51.3242 187.727 51.3086C187.5 51.2852 187.293 51.2734 187.105 51.2734C186.629 51.2734 186.215 51.3359 185.863 51.4609C185.52 51.5781 185.23 51.7539 184.996 51.9883C184.77 52.2227 184.598 52.5078 184.48 52.8438C184.371 53.1797 184.309 53.5625 184.293 53.9922L183.613 53.7812C183.613 52.9609 183.695 52.207 183.859 51.5195C184.023 50.8242 184.262 50.2188 184.574 49.7031C184.895 49.1875 185.285 48.7891 185.746 48.5078C186.207 48.2266 186.734 48.0859 187.328 48.0859C187.516 48.0859 187.707 48.1016 187.902 48.1328C188.098 48.1562 188.258 48.1914 188.383 48.2383ZM196.422 58.1406V52.4922C196.422 52.0859 196.355 51.7383 196.223 51.4492C196.09 51.1523 195.883 50.9219 195.602 50.7578C195.328 50.5938 194.973 50.5117 194.535 50.5117C194.16 50.5117 193.836 50.5781 193.562 50.7109C193.289 50.8359 193.078 51.0195 192.93 51.2617C192.781 51.4961 192.707 51.7734 192.707 52.0938H189.332C189.332 51.5547 189.457 51.043 189.707 50.5586C189.957 50.0742 190.32 49.6484 190.797 49.2812C191.273 48.9062 191.84 48.6133 192.496 48.4023C193.16 48.1914 193.902 48.0859 194.723 48.0859C195.707 48.0859 196.582 48.25 197.348 48.5781C198.113 48.9062 198.715 49.3984 199.152 50.0547C199.598 50.7109 199.82 51.5312 199.82 52.5156V57.9414C199.82 58.6367 199.863 59.207 199.949 59.6523C200.035 60.0898 200.16 60.4727 200.324 60.8008V61H196.914C196.75 60.6562 196.625 60.2266 196.539 59.7109C196.461 59.1875 196.422 58.6641 196.422 58.1406ZM196.867 53.2773L196.891 55.1875H195.004C194.559 55.1875 194.172 55.2383 193.844 55.3398C193.516 55.4414 193.246 55.5859 193.035 55.7734C192.824 55.9531 192.668 56.1641 192.566 56.4062C192.473 56.6484 192.426 56.9141 192.426 57.2031C192.426 57.4922 192.492 57.7539 192.625 57.9883C192.758 58.2148 192.949 58.3945 193.199 58.5273C193.449 58.6523 193.742 58.7148 194.078 58.7148C194.586 58.7148 195.027 58.6133 195.402 58.4102C195.777 58.207 196.066 57.957 196.27 57.6602C196.48 57.3633 196.59 57.082 196.598 56.8164L197.488 58.2461C197.363 58.5664 197.191 58.8984 196.973 59.2422C196.762 59.5859 196.492 59.9102 196.164 60.2148C195.836 60.5117 195.441 60.7578 194.98 60.9531C194.52 61.1406 193.973 61.2344 193.34 61.2344C192.535 61.2344 191.805 61.0742 191.148 60.7539C190.5 60.4258 189.984 59.9766 189.602 59.4062C189.227 58.8281 189.039 58.1719 189.039 57.4375C189.039 56.7734 189.164 56.1836 189.414 55.668C189.664 55.1523 190.031 54.7188 190.516 54.3672C191.008 54.0078 191.621 53.7383 192.355 53.5586C193.09 53.3711 193.941 53.2773 194.91 53.2773H196.867ZM205.797 50.9453V61H202.41V48.3203H205.586L205.797 50.9453ZM205.328 54.2148H204.391C204.391 53.332 204.496 52.5195 204.707 51.7773C204.926 51.0273 205.242 50.3789 205.656 49.832C206.078 49.2773 206.598 48.8477 207.215 48.543C207.832 48.2383 208.547 48.0859 209.359 48.0859C209.922 48.0859 210.438 48.1719 210.906 48.3438C211.375 48.5078 211.777 48.7695 212.113 49.1289C212.457 49.4805 212.723 49.9414 212.91 50.5117C213.098 51.0742 213.191 51.75 213.191 52.5391V61H209.816V52.9141C209.816 52.3359 209.738 51.8906 209.582 51.5781C209.426 51.2656 209.203 51.0469 208.914 50.9219C208.633 50.7969 208.293 50.7344 207.895 50.7344C207.457 50.7344 207.074 50.8242 206.746 51.0039C206.426 51.1836 206.16 51.4336 205.949 51.7539C205.738 52.0664 205.582 52.4336 205.48 52.8555C205.379 53.2773 205.328 53.7305 205.328 54.2148ZM212.875 53.8281L211.668 53.9805C211.668 53.1523 211.77 52.3828 211.973 51.6719C212.184 50.9609 212.492 50.3359 212.898 49.7969C213.312 49.2578 213.824 48.8398 214.434 48.543C215.043 48.2383 215.746 48.0859 216.543 48.0859C217.152 48.0859 217.707 48.1758 218.207 48.3555C218.707 48.5273 219.133 48.8047 219.484 49.1875C219.844 49.5625 220.117 50.0547 220.305 50.6641C220.5 51.2734 220.598 52.0195 220.598 52.9023V61H217.211V52.9023C217.211 52.3164 217.133 51.8711 216.977 51.5664C216.828 51.2539 216.609 51.0391 216.32 50.9219C216.039 50.7969 215.703 50.7344 215.312 50.7344C214.906 50.7344 214.551 50.8164 214.246 50.9805C213.941 51.1367 213.688 51.3555 213.484 51.6367C213.281 51.918 213.129 52.2461 213.027 52.6211C212.926 52.9883 212.875 53.3906 212.875 53.8281ZM234.426 58.5977C234.84 58.5977 235.207 58.5195 235.527 58.3633C235.848 58.1992 236.098 57.9727 236.277 57.6836C236.465 57.3867 236.562 57.0391 236.57 56.6406H239.746C239.738 57.5312 239.5 58.3242 239.031 59.0195C238.562 59.707 237.934 60.25 237.145 60.6484C236.355 61.0391 235.473 61.2344 234.496 61.2344C233.512 61.2344 232.652 61.0703 231.918 60.7422C231.191 60.4141 230.586 59.9609 230.102 59.3828C229.617 58.7969 229.254 58.1172 229.012 57.3438C228.77 56.5625 228.648 55.7266 228.648 54.8359V54.4961C228.648 53.5977 228.77 52.7617 229.012 51.9883C229.254 51.207 229.617 50.5273 230.102 49.9492C230.586 49.3633 231.191 48.9062 231.918 48.5781C232.645 48.25 233.496 48.0859 234.473 48.0859C235.512 48.0859 236.422 48.2852 237.203 48.6836C237.992 49.082 238.609 49.6523 239.055 50.3945C239.508 51.1289 239.738 52 239.746 53.0078H236.57C236.562 52.5859 236.473 52.2031 236.301 51.8594C236.137 51.5156 235.895 51.2422 235.574 51.0391C235.262 50.8281 234.875 50.7227 234.414 50.7227C233.922 50.7227 233.52 50.8281 233.207 51.0391C232.895 51.2422 232.652 51.5234 232.48 51.8828C232.309 52.2344 232.188 52.6367 232.117 53.0898C232.055 53.5352 232.023 54.0039 232.023 54.4961V54.8359C232.023 55.3281 232.055 55.8008 232.117 56.2539C232.18 56.707 232.297 57.1094 232.469 57.4609C232.648 57.8125 232.895 58.0898 233.207 58.293C233.52 58.4961 233.926 58.5977 234.426 58.5977ZM245.266 43V61H241.879V43H245.266ZM247.516 54.7891V54.543C247.516 53.6133 247.648 52.7578 247.914 51.9766C248.18 51.1875 248.566 50.5039 249.074 49.9258C249.582 49.3477 250.207 48.8984 250.949 48.5781C251.691 48.25 252.543 48.0859 253.504 48.0859C254.465 48.0859 255.32 48.25 256.07 48.5781C256.82 48.8984 257.449 49.3477 257.957 49.9258C258.473 50.5039 258.863 51.1875 259.129 51.9766C259.395 52.7578 259.527 53.6133 259.527 54.543V54.7891C259.527 55.7109 259.395 56.5664 259.129 57.3555C258.863 58.1367 258.473 58.8203 257.957 59.4062C257.449 59.9844 256.824 60.4336 256.082 60.7539C255.34 61.0742 254.488 61.2344 253.527 61.2344C252.566 61.2344 251.711 61.0742 250.961 60.7539C250.219 60.4336 249.59 59.9844 249.074 59.4062C248.566 58.8203 248.18 58.1367 247.914 57.3555C247.648 56.5664 247.516 55.7109 247.516 54.7891ZM250.891 54.543V54.7891C250.891 55.3203 250.938 55.8164 251.031 56.2773C251.125 56.7383 251.273 57.1445 251.477 57.4961C251.688 57.8398 251.961 58.1094 252.297 58.3047C252.633 58.5 253.043 58.5977 253.527 58.5977C253.996 58.5977 254.398 58.5 254.734 58.3047C255.07 58.1094 255.34 57.8398 255.543 57.4961C255.746 57.1445 255.895 56.7383 255.988 56.2773C256.09 55.8164 256.141 55.3203 256.141 54.7891V54.543C256.141 54.0273 256.09 53.543 255.988 53.0898C255.895 52.6289 255.742 52.2227 255.531 51.8711C255.328 51.5117 255.059 51.2305 254.723 51.0273C254.387 50.8242 253.98 50.7227 253.504 50.7227C253.027 50.7227 252.621 50.8242 252.285 51.0273C251.957 51.2305 251.688 51.5117 251.477 51.8711C251.273 52.2227 251.125 52.6289 251.031 53.0898C250.938 53.543 250.891 54.0273 250.891 54.543ZM264.906 51.0273V61H261.531V48.3203H264.695L264.906 51.0273ZM264.414 54.2148H263.5C263.5 53.2773 263.621 52.4336 263.863 51.6836C264.105 50.9258 264.445 50.2812 264.883 49.75C265.32 49.2109 265.84 48.8008 266.441 48.5195C267.051 48.2305 267.73 48.0859 268.48 48.0859C269.074 48.0859 269.617 48.1719 270.109 48.3438C270.602 48.5156 271.023 48.7891 271.375 49.1641C271.734 49.5391 272.008 50.0352 272.195 50.6523C272.391 51.2695 272.488 52.0234 272.488 52.9141V61H269.09V52.9023C269.09 52.3398 269.012 51.9023 268.855 51.5898C268.699 51.2773 268.469 51.0586 268.164 50.9336C267.867 50.8008 267.5 50.7344 267.062 50.7344C266.609 50.7344 266.215 50.8242 265.879 51.0039C265.551 51.1836 265.277 51.4336 265.059 51.7539C264.848 52.0664 264.688 52.4336 264.578 52.8555C264.469 53.2773 264.414 53.7305 264.414 54.2148ZM280.891 61.2344C279.906 61.2344 279.023 61.0781 278.242 60.7656C277.461 60.4453 276.797 60.0039 276.25 59.4414C275.711 58.8789 275.297 58.2266 275.008 57.4844C274.719 56.7344 274.574 55.9375 274.574 55.0938V54.625C274.574 53.6641 274.711 52.7852 274.984 51.9883C275.258 51.1914 275.648 50.5 276.156 49.9141C276.672 49.3281 277.297 48.8789 278.031 48.5664C278.766 48.2461 279.594 48.0859 280.516 48.0859C281.414 48.0859 282.211 48.2344 282.906 48.5312C283.602 48.8281 284.184 49.25 284.652 49.7969C285.129 50.3438 285.488 51 285.73 51.7656C285.973 52.5234 286.094 53.3672 286.094 54.2969V55.7031H276.016V53.4531H282.777V53.1953C282.777 52.7266 282.691 52.3086 282.52 51.9414C282.355 51.5664 282.105 51.2695 281.77 51.0508C281.434 50.832 281.004 50.7227 280.48 50.7227C280.035 50.7227 279.652 50.8203 279.332 51.0156C279.012 51.2109 278.75 51.4844 278.547 51.8359C278.352 52.1875 278.203 52.6016 278.102 53.0781C278.008 53.5469 277.961 54.0625 277.961 54.625V55.0938C277.961 55.6016 278.031 56.0703 278.172 56.5C278.32 56.9297 278.527 57.3008 278.793 57.6133C279.066 57.9258 279.395 58.168 279.777 58.3398C280.168 58.5117 280.609 58.5977 281.102 58.5977C281.711 58.5977 282.277 58.4805 282.801 58.2461C283.332 58.0039 283.789 57.6406 284.172 57.1562L285.812 58.9375C285.547 59.3203 285.184 59.6875 284.723 60.0391C284.27 60.3906 283.723 60.6797 283.082 60.9062C282.441 61.125 281.711 61.2344 280.891 61.2344Z" fill="#888888"/>
</svg>
