<svg width="1384" height="163" viewBox="0 0 1384 163" fill="none" xmlns="http://www.w3.org/2000/svg">
<path d="M0 15C0 6.71573 6.71573 0 15 0H37V163H15C6.71573 163 0 156.284 0 148V15Z" fill="#DD2A7B"/>
<path d="M1131 0H37V163H1131V0Z" fill="#F0F0F0"/>
<path d="M112.125 84.875V119H103.898V84.875H112.125ZM122.391 84.875V91.2266H93.8672V84.875H122.391ZM134.695 112.625V102.172C134.695 101.453 134.594 100.836 134.391 100.32C134.188 99.8047 133.867 99.4062 133.43 99.125C132.992 98.8281 132.406 98.6797 131.672 98.6797C131.078 98.6797 130.57 98.7812 130.148 98.9844C129.727 99.1875 129.406 99.4922 129.188 99.8984C128.969 100.305 128.859 100.82 128.859 101.445H120.961C120.961 100.273 121.219 99.1875 121.734 98.1875C122.266 97.1719 123.016 96.2891 123.984 95.5391C124.969 94.7891 126.141 94.2109 127.5 93.8047C128.875 93.3828 130.406 93.1719 132.094 93.1719C134.109 93.1719 135.906 93.5078 137.484 94.1797C139.078 94.8516 140.336 95.8594 141.258 97.2031C142.18 98.5312 142.641 100.203 142.641 102.219V112.602C142.641 114.258 142.734 115.516 142.922 116.375C143.109 117.219 143.375 117.961 143.719 118.602V119H135.797C135.422 118.219 135.141 117.266 134.953 116.141C134.781 115 134.695 113.828 134.695 112.625ZM135.656 103.508L135.703 107.727H132.211C131.477 107.727 130.852 107.828 130.336 108.031C129.836 108.234 129.43 108.516 129.117 108.875C128.82 109.219 128.602 109.609 128.461 110.047C128.336 110.484 128.273 110.945 128.273 111.43C128.273 111.898 128.383 112.32 128.602 112.695C128.836 113.055 129.148 113.336 129.539 113.539C129.93 113.742 130.367 113.844 130.852 113.844C131.727 113.844 132.469 113.68 133.078 113.352C133.703 113.008 134.18 112.594 134.508 112.109C134.836 111.625 135 111.172 135 110.75L136.734 113.984C136.422 114.609 136.062 115.242 135.656 115.883C135.266 116.523 134.773 117.117 134.18 117.664C133.602 118.195 132.891 118.633 132.047 118.977C131.203 119.305 130.18 119.469 128.977 119.469C127.414 119.469 125.977 119.148 124.664 118.508C123.367 117.867 122.328 116.977 121.547 115.836C120.766 114.68 120.375 113.352 120.375 111.852C120.375 110.539 120.609 109.367 121.078 108.336C121.562 107.305 122.289 106.43 123.258 105.711C124.227 104.992 125.461 104.445 126.961 104.07C128.461 103.695 130.227 103.508 132.258 103.508H135.656ZM147.094 83H154.992V112.766L154.172 119H147.094V83ZM170.555 106.039V106.531C170.555 108.453 170.359 110.203 169.969 111.781C169.578 113.359 168.977 114.727 168.164 115.883C167.352 117.023 166.328 117.906 165.094 118.531C163.859 119.156 162.398 119.469 160.711 119.469C159.18 119.469 157.867 119.141 156.773 118.484C155.68 117.812 154.766 116.891 154.031 115.719C153.297 114.531 152.703 113.164 152.25 111.617C151.797 110.055 151.438 108.383 151.172 106.602V106.016C151.438 104.25 151.797 102.594 152.25 101.047C152.703 99.4844 153.297 98.1172 154.031 96.9453C154.766 95.7578 155.672 94.8359 156.75 94.1797C157.844 93.5078 159.148 93.1719 160.664 93.1719C162.367 93.1719 163.836 93.4922 165.07 94.1328C166.32 94.7734 167.352 95.6719 168.164 96.8281C168.977 97.9844 169.578 99.3438 169.969 100.906C170.359 102.469 170.555 104.18 170.555 106.039ZM162.656 106.531V106.039C162.656 105.117 162.602 104.25 162.492 103.438C162.383 102.625 162.188 101.906 161.906 101.281C161.625 100.656 161.227 100.164 160.711 99.8047C160.195 99.4453 159.523 99.2656 158.695 99.2656C157.852 99.2656 157.141 99.4062 156.562 99.6875C156 99.9688 155.547 100.375 155.203 100.906C154.875 101.422 154.641 102.062 154.5 102.828C154.359 103.578 154.297 104.43 154.312 105.383V107.234C154.281 108.531 154.398 109.641 154.664 110.562C154.93 111.484 155.391 112.188 156.047 112.672C156.703 113.156 157.602 113.398 158.742 113.398C159.586 113.398 160.266 113.234 160.781 112.906C161.312 112.578 161.711 112.109 161.977 111.5C162.242 110.891 162.422 110.164 162.516 109.32C162.609 108.477 162.656 107.547 162.656 106.531ZM182.414 83V119H174.492V83H182.414ZM199.57 119.469C197.508 119.469 195.664 119.148 194.039 118.508C192.414 117.852 191.039 116.953 189.914 115.812C188.805 114.672 187.953 113.359 187.359 111.875C186.781 110.391 186.492 108.82 186.492 107.164V106.273C186.492 104.414 186.75 102.695 187.266 101.117C187.781 99.5234 188.547 98.1328 189.562 96.9453C190.578 95.7578 191.852 94.8359 193.383 94.1797C194.914 93.5078 196.695 93.1719 198.727 93.1719C200.523 93.1719 202.133 93.4609 203.555 94.0391C204.977 94.6172 206.18 95.4453 207.164 96.5234C208.164 97.6016 208.922 98.9062 209.438 100.438C209.969 101.969 210.234 103.688 210.234 105.594V108.805H189.516V103.859H202.523V103.25C202.539 102.406 202.391 101.688 202.078 101.094C201.781 100.5 201.344 100.047 200.766 99.7344C200.188 99.4219 199.484 99.2656 198.656 99.2656C197.797 99.2656 197.086 99.4531 196.523 99.8281C195.977 100.203 195.547 100.719 195.234 101.375C194.938 102.016 194.727 102.758 194.602 103.602C194.477 104.445 194.414 105.336 194.414 106.273V107.164C194.414 108.102 194.539 108.953 194.789 109.719C195.055 110.484 195.43 111.141 195.914 111.688C196.414 112.219 197.008 112.633 197.695 112.93C198.398 113.227 199.195 113.375 200.086 113.375C201.164 113.375 202.227 113.172 203.273 112.766C204.32 112.359 205.219 111.688 205.969 110.75L209.555 115.016C209.039 115.75 208.305 116.461 207.352 117.148C206.414 117.836 205.289 118.398 203.977 118.836C202.664 119.258 201.195 119.469 199.57 119.469ZM224.414 106.578V106.086C224.414 104.227 224.68 102.516 225.211 100.953C225.742 99.375 226.523 98.0078 227.555 96.8516C228.586 95.6953 229.859 94.7969 231.375 94.1562C232.891 93.5 234.641 93.1719 236.625 93.1719C238.625 93.1719 240.383 93.5 241.898 94.1562C243.43 94.7969 244.711 95.6953 245.742 96.8516C246.773 98.0078 247.555 99.375 248.086 100.953C248.617 102.516 248.883 104.227 248.883 106.086V106.578C248.883 108.422 248.617 110.133 248.086 111.711C247.555 113.273 246.773 114.641 245.742 115.812C244.711 116.969 243.438 117.867 241.922 118.508C240.406 119.148 238.656 119.469 236.672 119.469C234.688 119.469 232.93 119.148 231.398 118.508C229.867 117.867 228.586 116.969 227.555 115.812C226.523 114.641 225.742 113.273 225.211 111.711C224.68 110.133 224.414 108.422 224.414 106.578ZM232.312 106.086V106.578C232.312 107.531 232.383 108.422 232.523 109.25C232.664 110.078 232.898 110.805 233.227 111.43C233.555 112.039 234 112.516 234.562 112.859C235.125 113.203 235.828 113.375 236.672 113.375C237.5 113.375 238.188 113.203 238.734 112.859C239.297 112.516 239.742 112.039 240.07 111.43C240.398 110.805 240.633 110.078 240.773 109.25C240.914 108.422 240.984 107.531 240.984 106.578V106.086C240.984 105.164 240.914 104.297 240.773 103.484C240.633 102.656 240.398 101.93 240.07 101.305C239.742 100.664 239.297 100.164 238.734 99.8047C238.172 99.4453 237.469 99.2656 236.625 99.2656C235.797 99.2656 235.102 99.4453 234.539 99.8047C233.992 100.164 233.555 100.664 233.227 101.305C232.898 101.93 232.664 102.656 232.523 103.484C232.383 104.297 232.312 105.164 232.312 106.086ZM262.078 119H254.133V91.5781C254.133 89.6094 254.531 87.9531 255.328 86.6094C256.125 85.2656 257.25 84.25 258.703 83.5625C260.156 82.8594 261.875 82.5078 263.859 82.5078C264.547 82.5078 265.195 82.5547 265.805 82.6484C266.414 82.7422 267.008 82.8594 267.586 83L267.609 88.8125C267.328 88.7344 267.039 88.6797 266.742 88.6484C266.445 88.6172 266.078 88.6016 265.641 88.6016C264.875 88.6016 264.227 88.7188 263.695 88.9531C263.164 89.1719 262.758 89.5078 262.477 89.9609C262.211 90.3984 262.078 90.9375 262.078 91.5781V119ZM267 93.6406V99.125H250.477V93.6406H267ZM301.57 107.445H309.773C309.664 109.82 309.023 111.914 307.852 113.727C306.68 115.539 305.055 116.953 302.977 117.969C300.914 118.969 298.477 119.469 295.664 119.469C293.383 119.469 291.344 119.086 289.547 118.32C287.766 117.555 286.25 116.453 285 115.016C283.766 113.578 282.82 111.836 282.164 109.789C281.523 107.742 281.203 105.438 281.203 102.875V101.023C281.203 98.4609 281.539 96.1562 282.211 94.1094C282.898 92.0469 283.867 90.2969 285.117 88.8594C286.383 87.4062 287.898 86.2969 289.664 85.5312C291.43 84.7656 293.391 84.3828 295.547 84.3828C298.516 84.3828 301.023 84.9141 303.07 85.9766C305.117 87.0391 306.703 88.5 307.828 90.3594C308.953 92.2031 309.617 94.3047 309.82 96.6641H301.617C301.586 95.3828 301.367 94.3125 300.961 93.4531C300.555 92.5781 299.914 91.9219 299.039 91.4844C298.164 91.0469 297 90.8281 295.547 90.8281C294.531 90.8281 293.648 91.0156 292.898 91.3906C292.148 91.7656 291.523 92.3594 291.023 93.1719C290.523 93.9844 290.148 95.0391 289.898 96.3359C289.664 97.6172 289.547 99.1641 289.547 100.977V102.875C289.547 104.688 289.656 106.234 289.875 107.516C290.094 108.797 290.445 109.844 290.93 110.656C291.414 111.469 292.039 112.07 292.805 112.461C293.586 112.836 294.539 113.023 295.664 113.023C296.914 113.023 297.969 112.828 298.828 112.438C299.688 112.031 300.352 111.422 300.82 110.609C301.289 109.781 301.539 108.727 301.57 107.445ZM312.305 106.578V106.086C312.305 104.227 312.57 102.516 313.102 100.953C313.633 99.375 314.414 98.0078 315.445 96.8516C316.477 95.6953 317.75 94.7969 319.266 94.1562C320.781 93.5 322.531 93.1719 324.516 93.1719C326.516 93.1719 328.273 93.5 329.789 94.1562C331.32 94.7969 332.602 95.6953 333.633 96.8516C334.664 98.0078 335.445 99.375 335.977 100.953C336.508 102.516 336.773 104.227 336.773 106.086V106.578C336.773 108.422 336.508 110.133 335.977 111.711C335.445 113.273 334.664 114.641 333.633 115.812C332.602 116.969 331.328 117.867 329.812 118.508C328.297 119.148 326.547 119.469 324.562 119.469C322.578 119.469 320.82 119.148 319.289 118.508C317.758 117.867 316.477 116.969 315.445 115.812C314.414 114.641 313.633 113.273 313.102 111.711C312.57 110.133 312.305 108.422 312.305 106.578ZM320.203 106.086V106.578C320.203 107.531 320.273 108.422 320.414 109.25C320.555 110.078 320.789 110.805 321.117 111.43C321.445 112.039 321.891 112.516 322.453 112.859C323.016 113.203 323.719 113.375 324.562 113.375C325.391 113.375 326.078 113.203 326.625 112.859C327.188 112.516 327.633 112.039 327.961 111.43C328.289 110.805 328.523 110.078 328.664 109.25C328.805 108.422 328.875 107.531 328.875 106.578V106.086C328.875 105.164 328.805 104.297 328.664 103.484C328.523 102.656 328.289 101.93 327.961 101.305C327.633 100.664 327.188 100.164 326.625 99.8047C326.062 99.4453 325.359 99.2656 324.516 99.2656C323.688 99.2656 322.992 99.4453 322.43 99.8047C321.883 100.164 321.445 100.664 321.117 101.305C320.789 101.93 320.555 102.656 320.414 103.484C320.273 104.297 320.203 105.164 320.203 106.086ZM348.047 99.0547V119H340.148V93.6406H347.555L348.047 99.0547ZM347.109 105.453L345.258 105.5C345.258 103.562 345.492 101.836 345.961 100.32C346.43 98.7891 347.094 97.4922 347.953 96.4297C348.812 95.3672 349.836 94.5625 351.023 94.0156C352.227 93.4531 353.562 93.1719 355.031 93.1719C356.203 93.1719 357.273 93.3438 358.242 93.6875C359.227 94.0312 360.07 94.5859 360.773 95.3516C361.492 96.1172 362.039 97.1328 362.414 98.3984C362.805 99.6484 363 101.195 363 103.039V119H355.055V103.016C355.055 102 354.914 101.227 354.633 100.695C354.352 100.148 353.945 99.7734 353.414 99.5703C352.883 99.3672 352.234 99.2656 351.469 99.2656C350.656 99.2656 349.969 99.4219 349.406 99.7344C348.844 100.047 348.391 100.484 348.047 101.047C347.719 101.594 347.477 102.242 347.32 102.992C347.18 103.742 347.109 104.562 347.109 105.453ZM380.742 93.6406V99.125H365.461V93.6406H380.742ZM368.672 87.3359H376.57V110.727C376.57 111.398 376.648 111.922 376.805 112.297C376.961 112.656 377.227 112.914 377.602 113.07C377.992 113.211 378.508 113.281 379.148 113.281C379.602 113.281 379.977 113.273 380.273 113.258C380.57 113.227 380.852 113.188 381.117 113.141V118.789C380.445 119.008 379.742 119.172 379.008 119.281C378.273 119.406 377.492 119.469 376.664 119.469C374.977 119.469 373.531 119.203 372.328 118.672C371.141 118.141 370.234 117.305 369.609 116.164C368.984 115.023 368.672 113.539 368.672 111.711V87.3359ZM396.164 119.469C394.102 119.469 392.258 119.148 390.633 118.508C389.008 117.852 387.633 116.953 386.508 115.812C385.398 114.672 384.547 113.359 383.953 111.875C383.375 110.391 383.086 108.82 383.086 107.164V106.273C383.086 104.414 383.344 102.695 383.859 101.117C384.375 99.5234 385.141 98.1328 386.156 96.9453C387.172 95.7578 388.445 94.8359 389.977 94.1797C391.508 93.5078 393.289 93.1719 395.32 93.1719C397.117 93.1719 398.727 93.4609 400.148 94.0391C401.57 94.6172 402.773 95.4453 403.758 96.5234C404.758 97.6016 405.516 98.9062 406.031 100.438C406.562 101.969 406.828 103.688 406.828 105.594V108.805H386.109V103.859H399.117V103.25C399.133 102.406 398.984 101.688 398.672 101.094C398.375 100.5 397.938 100.047 397.359 99.7344C396.781 99.4219 396.078 99.2656 395.25 99.2656C394.391 99.2656 393.68 99.4531 393.117 99.8281C392.57 100.203 392.141 100.719 391.828 101.375C391.531 102.016 391.32 102.758 391.195 103.602C391.07 104.445 391.008 105.336 391.008 106.273V107.164C391.008 108.102 391.133 108.953 391.383 109.719C391.648 110.484 392.023 111.141 392.508 111.688C393.008 112.219 393.602 112.633 394.289 112.93C394.992 113.227 395.789 113.375 396.68 113.375C397.758 113.375 398.82 113.172 399.867 112.766C400.914 112.359 401.812 111.688 402.562 110.75L406.148 115.016C405.633 115.75 404.898 116.461 403.945 117.148C403.008 117.836 401.883 118.398 400.57 118.836C399.258 119.258 397.789 119.469 396.164 119.469ZM417.797 99.0547V119H409.898V93.6406H417.305L417.797 99.0547ZM416.859 105.453L415.008 105.5C415.008 103.562 415.242 101.836 415.711 100.32C416.18 98.7891 416.844 97.4922 417.703 96.4297C418.562 95.3672 419.586 94.5625 420.773 94.0156C421.977 93.4531 423.312 93.1719 424.781 93.1719C425.953 93.1719 427.023 93.3438 427.992 93.6875C428.977 94.0312 429.82 94.5859 430.523 95.3516C431.242 96.1172 431.789 97.1328 432.164 98.3984C432.555 99.6484 432.75 101.195 432.75 103.039V119H424.805V103.016C424.805 102 424.664 101.227 424.383 100.695C424.102 100.148 423.695 99.7734 423.164 99.5703C422.633 99.3672 421.984 99.2656 421.219 99.2656C420.406 99.2656 419.719 99.4219 419.156 99.7344C418.594 100.047 418.141 100.484 417.797 101.047C417.469 101.594 417.227 102.242 417.07 102.992C416.93 103.742 416.859 104.562 416.859 105.453ZM450.492 93.6406V99.125H435.211V93.6406H450.492ZM438.422 87.3359H446.32V110.727C446.32 111.398 446.398 111.922 446.555 112.297C446.711 112.656 446.977 112.914 447.352 113.07C447.742 113.211 448.258 113.281 448.898 113.281C449.352 113.281 449.727 113.273 450.023 113.258C450.32 113.227 450.602 113.188 450.867 113.141V118.789C450.195 119.008 449.492 119.172 448.758 119.281C448.023 119.406 447.242 119.469 446.414 119.469C444.727 119.469 443.281 119.203 442.078 118.672C440.891 118.141 439.984 117.305 439.359 116.164C438.734 115.023 438.422 113.539 438.422 111.711V87.3359ZM466.922 111.875C466.922 111.438 466.773 111.062 466.477 110.75C466.195 110.422 465.695 110.125 464.977 109.859C464.258 109.578 463.25 109.297 461.953 109.016C460.719 108.75 459.555 108.398 458.461 107.961C457.383 107.523 456.438 106.992 455.625 106.367C454.812 105.742 454.172 105 453.703 104.141C453.25 103.281 453.023 102.297 453.023 101.188C453.023 100.109 453.25 99.0938 453.703 98.1406C454.172 97.1719 454.852 96.3203 455.742 95.5859C456.648 94.8359 457.75 94.25 459.047 93.8281C460.344 93.3906 461.82 93.1719 463.477 93.1719C465.758 93.1719 467.727 93.5234 469.383 94.2266C471.039 94.9141 472.312 95.8828 473.203 97.1328C474.109 98.3672 474.562 99.7969 474.562 101.422H466.664C466.664 100.781 466.555 100.234 466.336 99.7812C466.133 99.3281 465.797 98.9844 465.328 98.75C464.859 98.5 464.234 98.375 463.453 98.375C462.906 98.375 462.406 98.4766 461.953 98.6797C461.516 98.8828 461.164 99.1641 460.898 99.5234C460.633 99.8828 460.5 100.305 460.5 100.789C460.5 101.133 460.578 101.445 460.734 101.727C460.906 101.992 461.164 102.242 461.508 102.477C461.852 102.695 462.289 102.898 462.82 103.086C463.352 103.258 463.992 103.414 464.742 103.555C466.445 103.867 468.039 104.312 469.523 104.891C471.008 105.469 472.211 106.289 473.133 107.352C474.07 108.414 474.539 109.844 474.539 111.641C474.539 112.766 474.281 113.805 473.766 114.758C473.25 115.695 472.508 116.523 471.539 117.242C470.57 117.945 469.406 118.492 468.047 118.883C466.688 119.273 465.156 119.469 463.453 119.469C461.031 119.469 458.984 119.039 457.312 118.18C455.641 117.305 454.375 116.211 453.516 114.898C452.672 113.57 452.25 112.227 452.25 110.867H459.609C459.641 111.648 459.828 112.289 460.172 112.789C460.531 113.289 461.008 113.656 461.602 113.891C462.195 114.125 462.883 114.242 463.664 114.242C464.383 114.242 464.977 114.141 465.445 113.938C465.93 113.734 466.297 113.461 466.547 113.117C466.797 112.758 466.922 112.344 466.922 111.875Z" fill="#1D2126"/>
<path d="M1131 0H1345C1353.28 0 1360 6.71573 1360 15V148C1360 156.284 1353.28 163 1345 163H1131V0Z" fill="#DD2A7B"/>
<path d="M1270.5 81.5V97.125C1270.5 103.018 1270.5 105.964 1268.67 107.794C1266.84 109.625 1263.89 109.625 1258 109.625H1228.31C1224 109.625 1220.5 106.127 1220.5 101.812M1270.5 81.5C1270.5 87.3926 1270.5 90.3388 1268.67 92.1694C1266.84 94 1263.89 94 1258 94H1228.31C1224 94 1220.5 97.4978 1220.5 101.812M1270.5 81.5V65.875C1270.5 59.9824 1270.5 57.0362 1268.67 55.2056C1266.84 53.375 1263.89 53.375 1258 53.375H1233C1227.11 53.375 1224.16 53.375 1222.33 55.2056C1220.5 57.0362 1220.5 59.9824 1220.5 65.875V101.812" stroke="white" stroke-width="6.25"/>
<path d="M1236.12 69H1254.88" stroke="white" stroke-width="6.25" stroke-linecap="round"/>
<path d="M102.906 53.9219L95.3945 51.2383V48.0859L105.602 52.375V54.6367L102.906 53.9219ZM95.3945 56.1719L102.918 53.4297L105.602 52.7852V55.0352L95.3945 59.3242V56.1719ZM127.914 52.0703V52.8789C127.914 54.1758 127.738 55.3398 127.387 56.3711C127.035 57.4023 126.539 58.2812 125.898 59.0078C125.258 59.7266 124.492 60.2773 123.602 60.6602C122.719 61.043 121.738 61.2344 120.66 61.2344C119.59 61.2344 118.609 61.043 117.719 60.6602C116.836 60.2773 116.07 59.7266 115.422 59.0078C114.773 58.2812 114.27 57.4023 113.91 56.3711C113.559 55.3398 113.383 54.1758 113.383 52.8789V52.0703C113.383 50.7656 113.559 49.6016 113.91 48.5781C114.262 47.5469 114.758 46.668 115.398 45.9414C116.047 45.2148 116.812 44.6602 117.695 44.2773C118.586 43.8945 119.566 43.7031 120.637 43.7031C121.715 43.7031 122.695 43.8945 123.578 44.2773C124.469 44.6602 125.234 45.2148 125.875 45.9414C126.523 46.668 127.023 47.5469 127.375 48.5781C127.734 49.6016 127.914 50.7656 127.914 52.0703ZM124.363 52.8789V52.0469C124.363 51.1406 124.281 50.3438 124.117 49.6562C123.953 48.9688 123.711 48.3906 123.391 47.9219C123.07 47.4531 122.68 47.1016 122.219 46.8672C121.758 46.625 121.23 46.5039 120.637 46.5039C120.043 46.5039 119.516 46.625 119.055 46.8672C118.602 47.1016 118.215 47.4531 117.895 47.9219C117.582 48.3906 117.344 48.9688 117.18 49.6562C117.016 50.3438 116.934 51.1406 116.934 52.0469V52.8789C116.934 53.7773 117.016 54.5742 117.18 55.2695C117.344 55.957 117.586 56.5391 117.906 57.0156C118.227 57.4844 118.617 57.8398 119.078 58.082C119.539 58.3242 120.066 58.4453 120.66 58.4453C121.254 58.4453 121.781 58.3242 122.242 58.082C122.703 57.8398 123.09 57.4844 123.402 57.0156C123.715 56.5391 123.953 55.957 124.117 55.2695C124.281 54.5742 124.363 53.7773 124.363 52.8789ZM133.539 51.0273V61H130.164V48.3203H133.328L133.539 51.0273ZM133.047 54.2148H132.133C132.133 53.2773 132.254 52.4336 132.496 51.6836C132.738 50.9258 133.078 50.2812 133.516 49.75C133.953 49.2109 134.473 48.8008 135.074 48.5195C135.684 48.2305 136.363 48.0859 137.113 48.0859C137.707 48.0859 138.25 48.1719 138.742 48.3438C139.234 48.5156 139.656 48.7891 140.008 49.1641C140.367 49.5391 140.641 50.0352 140.828 50.6523C141.023 51.2695 141.121 52.0234 141.121 52.9141V61H137.723V52.9023C137.723 52.3398 137.645 51.9023 137.488 51.5898C137.332 51.2773 137.102 51.0586 136.797 50.9336C136.5 50.8008 136.133 50.7344 135.695 50.7344C135.242 50.7344 134.848 50.8242 134.512 51.0039C134.184 51.1836 133.91 51.4336 133.691 51.7539C133.48 52.0664 133.32 52.4336 133.211 52.8555C133.102 53.2773 133.047 53.7305 133.047 54.2148ZM147.25 43V61H143.863V43H147.25ZM153.602 48.3203V61H150.215V48.3203H153.602ZM150.004 45.0156C150.004 44.5234 150.176 44.1172 150.52 43.7969C150.863 43.4766 151.324 43.3164 151.902 43.3164C152.473 43.3164 152.93 43.4766 153.273 43.7969C153.625 44.1172 153.801 44.5234 153.801 45.0156C153.801 45.5078 153.625 45.9141 153.273 46.2344C152.93 46.5547 152.473 46.7148 151.902 46.7148C151.324 46.7148 150.863 46.5547 150.52 46.2344C150.176 45.9141 150.004 45.5078 150.004 45.0156ZM159.695 51.0273V61H156.32V48.3203H159.484L159.695 51.0273ZM159.203 54.2148H158.289C158.289 53.2773 158.41 52.4336 158.652 51.6836C158.895 50.9258 159.234 50.2812 159.672 49.75C160.109 49.2109 160.629 48.8008 161.23 48.5195C161.84 48.2305 162.52 48.0859 163.27 48.0859C163.863 48.0859 164.406 48.1719 164.898 48.3438C165.391 48.5156 165.812 48.7891 166.164 49.1641C166.523 49.5391 166.797 50.0352 166.984 50.6523C167.18 51.2695 167.277 52.0234 167.277 52.9141V61H163.879V52.9023C163.879 52.3398 163.801 51.9023 163.645 51.5898C163.488 51.2773 163.258 51.0586 162.953 50.9336C162.656 50.8008 162.289 50.7344 161.852 50.7344C161.398 50.7344 161.004 50.8242 160.668 51.0039C160.34 51.1836 160.066 51.4336 159.848 51.7539C159.637 52.0664 159.477 52.4336 159.367 52.8555C159.258 53.2773 159.203 53.7305 159.203 54.2148ZM175.68 61.2344C174.695 61.2344 173.812 61.0781 173.031 60.7656C172.25 60.4453 171.586 60.0039 171.039 59.4414C170.5 58.8789 170.086 58.2266 169.797 57.4844C169.508 56.7344 169.363 55.9375 169.363 55.0938V54.625C169.363 53.6641 169.5 52.7852 169.773 51.9883C170.047 51.1914 170.438 50.5 170.945 49.9141C171.461 49.3281 172.086 48.8789 172.82 48.5664C173.555 48.2461 174.383 48.0859 175.305 48.0859C176.203 48.0859 177 48.2344 177.695 48.5312C178.391 48.8281 178.973 49.25 179.441 49.7969C179.918 50.3438 180.277 51 180.52 51.7656C180.762 52.5234 180.883 53.3672 180.883 54.2969V55.7031H170.805V53.4531H177.566V53.1953C177.566 52.7266 177.48 52.3086 177.309 51.9414C177.145 51.5664 176.895 51.2695 176.559 51.0508C176.223 50.832 175.793 50.7227 175.27 50.7227C174.824 50.7227 174.441 50.8203 174.121 51.0156C173.801 51.2109 173.539 51.4844 173.336 51.8359C173.141 52.1875 172.992 52.6016 172.891 53.0781C172.797 53.5469 172.75 54.0625 172.75 54.625V55.0938C172.75 55.6016 172.82 56.0703 172.961 56.5C173.109 56.9297 173.316 57.3008 173.582 57.6133C173.855 57.9258 174.184 58.168 174.566 58.3398C174.957 58.5117 175.398 58.5977 175.891 58.5977C176.5 58.5977 177.066 58.4805 177.59 58.2461C178.121 58.0039 178.578 57.6406 178.961 57.1562L180.602 58.9375C180.336 59.3203 179.973 59.6875 179.512 60.0391C179.059 60.3906 178.512 60.6797 177.871 60.9062C177.23 61.125 176.5 61.2344 175.68 61.2344ZM188.992 43.9375H195.355C196.66 43.9375 197.781 44.1328 198.719 44.5234C199.664 44.9141 200.391 45.4922 200.898 46.2578C201.406 47.0234 201.66 47.9648 201.66 49.082C201.66 49.9961 201.504 50.7812 201.191 51.4375C200.887 52.0859 200.453 52.6289 199.891 53.0664C199.336 53.4961 198.684 53.8398 197.934 54.0977L196.82 54.6836H191.289L191.266 51.9414H195.379C195.996 51.9414 196.508 51.832 196.914 51.6133C197.32 51.3945 197.625 51.0898 197.828 50.6992C198.039 50.3086 198.145 49.8555 198.145 49.3398C198.145 48.793 198.043 48.3203 197.84 47.9219C197.637 47.5234 197.328 47.2188 196.914 47.0078C196.5 46.7969 195.98 46.6914 195.355 46.6914H192.508V61H188.992V43.9375ZM198.531 61L194.641 53.3945L198.355 53.3711L202.293 60.8359V61H198.531ZM209.992 61.2344C209.008 61.2344 208.125 61.0781 207.344 60.7656C206.562 60.4453 205.898 60.0039 205.352 59.4414C204.812 58.8789 204.398 58.2266 204.109 57.4844C203.82 56.7344 203.676 55.9375 203.676 55.0938V54.625C203.676 53.6641 203.812 52.7852 204.086 51.9883C204.359 51.1914 204.75 50.5 205.258 49.9141C205.773 49.3281 206.398 48.8789 207.133 48.5664C207.867 48.2461 208.695 48.0859 209.617 48.0859C210.516 48.0859 211.312 48.2344 212.008 48.5312C212.703 48.8281 213.285 49.25 213.754 49.7969C214.23 50.3438 214.59 51 214.832 51.7656C215.074 52.5234 215.195 53.3672 215.195 54.2969V55.7031H205.117V53.4531H211.879V53.1953C211.879 52.7266 211.793 52.3086 211.621 51.9414C211.457 51.5664 211.207 51.2695 210.871 51.0508C210.535 50.832 210.105 50.7227 209.582 50.7227C209.137 50.7227 208.754 50.8203 208.434 51.0156C208.113 51.2109 207.852 51.4844 207.648 51.8359C207.453 52.1875 207.305 52.6016 207.203 53.0781C207.109 53.5469 207.062 54.0625 207.062 54.625V55.0938C207.062 55.6016 207.133 56.0703 207.273 56.5C207.422 56.9297 207.629 57.3008 207.895 57.6133C208.168 57.9258 208.496 58.168 208.879 58.3398C209.27 58.5117 209.711 58.5977 210.203 58.5977C210.812 58.5977 211.379 58.4805 211.902 58.2461C212.434 58.0039 212.891 57.6406 213.273 57.1562L214.914 58.9375C214.648 59.3203 214.285 59.6875 213.824 60.0391C213.371 60.3906 212.824 60.6797 212.184 60.9062C211.543 61.125 210.812 61.2344 209.992 61.2344ZM222.355 58.5977C222.77 58.5977 223.137 58.5195 223.457 58.3633C223.777 58.1992 224.027 57.9727 224.207 57.6836C224.395 57.3867 224.492 57.0391 224.5 56.6406H227.676C227.668 57.5312 227.43 58.3242 226.961 59.0195C226.492 59.707 225.863 60.25 225.074 60.6484C224.285 61.0391 223.402 61.2344 222.426 61.2344C221.441 61.2344 220.582 61.0703 219.848 60.7422C219.121 60.4141 218.516 59.9609 218.031 59.3828C217.547 58.7969 217.184 58.1172 216.941 57.3438C216.699 56.5625 216.578 55.7266 216.578 54.8359V54.4961C216.578 53.5977 216.699 52.7617 216.941 51.9883C217.184 51.207 217.547 50.5273 218.031 49.9492C218.516 49.3633 219.121 48.9062 219.848 48.5781C220.574 48.25 221.426 48.0859 222.402 48.0859C223.441 48.0859 224.352 48.2852 225.133 48.6836C225.922 49.082 226.539 49.6523 226.984 50.3945C227.438 51.1289 227.668 52 227.676 53.0078H224.5C224.492 52.5859 224.402 52.2031 224.23 51.8594C224.066 51.5156 223.824 51.2422 223.504 51.0391C223.191 50.8281 222.805 50.7227 222.344 50.7227C221.852 50.7227 221.449 50.8281 221.137 51.0391C220.824 51.2422 220.582 51.5234 220.41 51.8828C220.238 52.2344 220.117 52.6367 220.047 53.0898C219.984 53.5352 219.953 54.0039 219.953 54.4961V54.8359C219.953 55.3281 219.984 55.8008 220.047 56.2539C220.109 56.707 220.227 57.1094 220.398 57.4609C220.578 57.8125 220.824 58.0898 221.137 58.293C221.449 58.4961 221.855 58.5977 222.355 58.5977ZM233.195 48.3203V61H229.809V48.3203H233.195ZM229.598 45.0156C229.598 44.5234 229.77 44.1172 230.113 43.7969C230.457 43.4766 230.918 43.3164 231.496 43.3164C232.066 43.3164 232.523 43.4766 232.867 43.7969C233.219 44.1172 233.395 44.5234 233.395 45.0156C233.395 45.5078 233.219 45.9141 232.867 46.2344C232.523 46.5547 232.066 46.7148 231.496 46.7148C230.918 46.7148 230.457 46.5547 230.113 46.2344C229.77 45.9141 229.598 45.5078 229.598 45.0156ZM239.359 50.7578V65.875H235.984V48.3203H239.113L239.359 50.7578ZM247.387 54.5195V54.7656C247.387 55.6875 247.277 56.543 247.059 57.332C246.848 58.1211 246.535 58.8086 246.121 59.3945C245.707 59.9727 245.191 60.4258 244.574 60.7539C243.965 61.0742 243.262 61.2344 242.465 61.2344C241.691 61.2344 241.02 61.0781 240.449 60.7656C239.879 60.4531 239.398 60.0156 239.008 59.4531C238.625 58.8828 238.316 58.2227 238.082 57.4727C237.848 56.7227 237.668 55.918 237.543 55.0586V54.4141C237.668 53.4922 237.848 52.6484 238.082 51.8828C238.316 51.1094 238.625 50.4414 239.008 49.8789C239.398 49.3086 239.875 48.8672 240.438 48.5547C241.008 48.2422 241.676 48.0859 242.441 48.0859C243.246 48.0859 243.953 48.2383 244.562 48.543C245.18 48.8477 245.695 49.2852 246.109 49.8555C246.531 50.4258 246.848 51.1055 247.059 51.8945C247.277 52.6836 247.387 53.5586 247.387 54.5195ZM244 54.7656V54.5195C244 53.9805 243.953 53.4844 243.859 53.0312C243.773 52.5703 243.633 52.168 243.438 51.8242C243.25 51.4805 243 51.2148 242.688 51.0273C242.383 50.832 242.012 50.7344 241.574 50.7344C241.113 50.7344 240.719 50.8086 240.391 50.957C240.07 51.1055 239.809 51.3203 239.605 51.6016C239.402 51.8828 239.25 52.2188 239.148 52.6094C239.047 53 238.984 53.4414 238.961 53.9336V55.5625C239 56.1406 239.109 56.6602 239.289 57.1211C239.469 57.5742 239.746 57.9336 240.121 58.1992C240.496 58.4648 240.988 58.5977 241.598 58.5977C242.043 58.5977 242.418 58.5 242.723 58.3047C243.027 58.1016 243.273 57.8242 243.461 57.4727C243.656 57.1211 243.793 56.7148 243.871 56.2539C243.957 55.793 244 55.2969 244 54.7656ZM255.32 61.2344C254.336 61.2344 253.453 61.0781 252.672 60.7656C251.891 60.4453 251.227 60.0039 250.68 59.4414C250.141 58.8789 249.727 58.2266 249.438 57.4844C249.148 56.7344 249.004 55.9375 249.004 55.0938V54.625C249.004 53.6641 249.141 52.7852 249.414 51.9883C249.688 51.1914 250.078 50.5 250.586 49.9141C251.102 49.3281 251.727 48.8789 252.461 48.5664C253.195 48.2461 254.023 48.0859 254.945 48.0859C255.844 48.0859 256.641 48.2344 257.336 48.5312C258.031 48.8281 258.613 49.25 259.082 49.7969C259.559 50.3438 259.918 51 260.16 51.7656C260.402 52.5234 260.523 53.3672 260.523 54.2969V55.7031H250.445V53.4531H257.207V53.1953C257.207 52.7266 257.121 52.3086 256.949 51.9414C256.785 51.5664 256.535 51.2695 256.199 51.0508C255.863 50.832 255.434 50.7227 254.91 50.7227C254.465 50.7227 254.082 50.8203 253.762 51.0156C253.441 51.2109 253.18 51.4844 252.977 51.8359C252.781 52.1875 252.633 52.6016 252.531 53.0781C252.438 53.5469 252.391 54.0625 252.391 54.625V55.0938C252.391 55.6016 252.461 56.0703 252.602 56.5C252.75 56.9297 252.957 57.3008 253.223 57.6133C253.496 57.9258 253.824 58.168 254.207 58.3398C254.598 58.5117 255.039 58.5977 255.531 58.5977C256.141 58.5977 256.707 58.4805 257.23 58.2461C257.762 58.0039 258.219 57.6406 258.602 57.1562L260.242 58.9375C259.977 59.3203 259.613 59.6875 259.152 60.0391C258.699 60.3906 258.152 60.6797 257.512 60.9062C256.871 61.125 256.141 61.2344 255.32 61.2344ZM269.301 57.4961C269.301 57.2539 269.23 57.0352 269.09 56.8398C268.949 56.6445 268.688 56.4648 268.305 56.3008C267.93 56.1289 267.387 55.9727 266.676 55.832C266.035 55.6914 265.438 55.5156 264.883 55.3047C264.336 55.0859 263.859 54.8242 263.453 54.5195C263.055 54.2148 262.742 53.8555 262.516 53.4414C262.289 53.0195 262.176 52.5391 262.176 52C262.176 51.4688 262.289 50.9688 262.516 50.5C262.75 50.0312 263.082 49.6172 263.512 49.2578C263.949 48.8906 264.48 48.6055 265.105 48.4023C265.738 48.1914 266.449 48.0859 267.238 48.0859C268.34 48.0859 269.285 48.2617 270.074 48.6133C270.871 48.9648 271.48 49.4492 271.902 50.0664C272.332 50.6758 272.547 51.3711 272.547 52.1523H269.172C269.172 51.8242 269.102 51.5312 268.961 51.2734C268.828 51.0078 268.617 50.8008 268.328 50.6523C268.047 50.4961 267.68 50.418 267.227 50.418C266.852 50.418 266.527 50.4844 266.254 50.6172C265.98 50.7422 265.77 50.9141 265.621 51.1328C265.48 51.3438 265.41 51.5781 265.41 51.8359C265.41 52.0312 265.449 52.207 265.527 52.3633C265.613 52.5117 265.75 52.6484 265.938 52.7734C266.125 52.8984 266.367 53.0156 266.664 53.125C266.969 53.2266 267.344 53.3203 267.789 53.4062C268.703 53.5938 269.52 53.8398 270.238 54.1445C270.957 54.4414 271.527 54.8477 271.949 55.3633C272.371 55.8711 272.582 56.5391 272.582 57.3672C272.582 57.9297 272.457 58.4453 272.207 58.9141C271.957 59.3828 271.598 59.793 271.129 60.1445C270.66 60.4883 270.098 60.7578 269.441 60.9531C268.793 61.1406 268.062 61.2344 267.25 61.2344C266.07 61.2344 265.07 61.0234 264.25 60.6016C263.438 60.1797 262.82 59.6445 262.398 58.9961C261.984 58.3398 261.777 57.668 261.777 56.9805H264.977C264.992 57.4414 265.109 57.8125 265.328 58.0938C265.555 58.375 265.84 58.5781 266.184 58.7031C266.535 58.8281 266.914 58.8906 267.32 58.8906C267.758 58.8906 268.121 58.832 268.41 58.7148C268.699 58.5898 268.918 58.4258 269.066 58.2227C269.223 58.0117 269.301 57.7695 269.301 57.4961Z" fill="#888888"/>
</svg>
