<svg width="1363" height="163" viewBox="0 0 1363 163" fill="none" xmlns="http://www.w3.org/2000/svg">
<path d="M0 15C0 6.71573 6.71573 0 15 0H37V163H15C6.71573 163 0 156.284 0 148V15Z" fill="#DD2A7B"/>
<rect width="1097" height="163" transform="translate(37)" fill="#F0F0F0"/>
<path d="M101.906 53.9219L94.3945 51.2383V48.0859L104.602 52.375V54.6367L101.906 53.9219ZM94.3945 56.1719L101.918 53.4297L104.602 52.7852V55.0352L94.3945 59.3242V56.1719ZM116.637 43.9375V61H113.133V43.9375H116.637ZM123.023 51.0273V61H119.648V48.3203H122.812L123.023 51.0273ZM122.531 54.2148H121.617C121.617 53.2773 121.738 52.4336 121.98 51.6836C122.223 50.9258 122.562 50.2812 123 49.75C123.438 49.2109 123.957 48.8008 124.559 48.5195C125.168 48.2305 125.848 48.0859 126.598 48.0859C127.191 48.0859 127.734 48.1719 128.227 48.3438C128.719 48.5156 129.141 48.7891 129.492 49.1641C129.852 49.5391 130.125 50.0352 130.312 50.6523C130.508 51.2695 130.605 52.0234 130.605 52.9141V61H127.207V52.9023C127.207 52.3398 127.129 51.9023 126.973 51.5898C126.816 51.2773 126.586 51.0586 126.281 50.9336C125.984 50.8008 125.617 50.7344 125.18 50.7344C124.727 50.7344 124.332 50.8242 123.996 51.0039C123.668 51.1836 123.395 51.4336 123.176 51.7539C122.965 52.0664 122.805 52.4336 122.695 52.8555C122.586 53.2773 122.531 53.7305 122.531 54.2148ZM140.027 57.4961C140.027 57.2539 139.957 57.0352 139.816 56.8398C139.676 56.6445 139.414 56.4648 139.031 56.3008C138.656 56.1289 138.113 55.9727 137.402 55.832C136.762 55.6914 136.164 55.5156 135.609 55.3047C135.062 55.0859 134.586 54.8242 134.18 54.5195C133.781 54.2148 133.469 53.8555 133.242 53.4414C133.016 53.0195 132.902 52.5391 132.902 52C132.902 51.4688 133.016 50.9688 133.242 50.5C133.477 50.0312 133.809 49.6172 134.238 49.2578C134.676 48.8906 135.207 48.6055 135.832 48.4023C136.465 48.1914 137.176 48.0859 137.965 48.0859C139.066 48.0859 140.012 48.2617 140.801 48.6133C141.598 48.9648 142.207 49.4492 142.629 50.0664C143.059 50.6758 143.273 51.3711 143.273 52.1523H139.898C139.898 51.8242 139.828 51.5312 139.688 51.2734C139.555 51.0078 139.344 50.8008 139.055 50.6523C138.773 50.4961 138.406 50.418 137.953 50.418C137.578 50.418 137.254 50.4844 136.98 50.6172C136.707 50.7422 136.496 50.9141 136.348 51.1328C136.207 51.3438 136.137 51.5781 136.137 51.8359C136.137 52.0312 136.176 52.207 136.254 52.3633C136.34 52.5117 136.477 52.6484 136.664 52.7734C136.852 52.8984 137.094 53.0156 137.391 53.125C137.695 53.2266 138.07 53.3203 138.516 53.4062C139.43 53.5938 140.246 53.8398 140.965 54.1445C141.684 54.4414 142.254 54.8477 142.676 55.3633C143.098 55.8711 143.309 56.5391 143.309 57.3672C143.309 57.9297 143.184 58.4453 142.934 58.9141C142.684 59.3828 142.324 59.793 141.855 60.1445C141.387 60.4883 140.824 60.7578 140.168 60.9531C139.52 61.1406 138.789 61.2344 137.977 61.2344C136.797 61.2344 135.797 61.0234 134.977 60.6016C134.164 60.1797 133.547 59.6445 133.125 58.9961C132.711 58.3398 132.504 57.668 132.504 56.9805H135.703C135.719 57.4414 135.836 57.8125 136.055 58.0938C136.281 58.375 136.566 58.5781 136.91 58.7031C137.262 58.8281 137.641 58.8906 138.047 58.8906C138.484 58.8906 138.848 58.832 139.137 58.7148C139.426 58.5898 139.645 58.4258 139.793 58.2227C139.949 58.0117 140.027 57.7695 140.027 57.4961ZM151.711 48.3203V50.7109H144.328V48.3203H151.711ZM146.156 45.1914H149.531V57.1797C149.531 57.5469 149.578 57.8281 149.672 58.0234C149.773 58.2188 149.922 58.3555 150.117 58.4336C150.312 58.5039 150.559 58.5391 150.855 58.5391C151.066 58.5391 151.254 58.5312 151.418 58.5156C151.59 58.4922 151.734 58.4688 151.852 58.4453L151.863 60.9297C151.574 61.0234 151.262 61.0977 150.926 61.1523C150.59 61.207 150.219 61.2344 149.812 61.2344C149.07 61.2344 148.422 61.1133 147.867 60.8711C147.32 60.6211 146.898 60.2227 146.602 59.6758C146.305 59.1289 146.156 58.4102 146.156 57.5195V45.1914ZM160.477 58.1406V52.4922C160.477 52.0859 160.41 51.7383 160.277 51.4492C160.145 51.1523 159.938 50.9219 159.656 50.7578C159.383 50.5938 159.027 50.5117 158.59 50.5117C158.215 50.5117 157.891 50.5781 157.617 50.7109C157.344 50.8359 157.133 51.0195 156.984 51.2617C156.836 51.4961 156.762 51.7734 156.762 52.0938H153.387C153.387 51.5547 153.512 51.043 153.762 50.5586C154.012 50.0742 154.375 49.6484 154.852 49.2812C155.328 48.9062 155.895 48.6133 156.551 48.4023C157.215 48.1914 157.957 48.0859 158.777 48.0859C159.762 48.0859 160.637 48.25 161.402 48.5781C162.168 48.9062 162.77 49.3984 163.207 50.0547C163.652 50.7109 163.875 51.5312 163.875 52.5156V57.9414C163.875 58.6367 163.918 59.207 164.004 59.6523C164.09 60.0898 164.215 60.4727 164.379 60.8008V61H160.969C160.805 60.6562 160.68 60.2266 160.594 59.7109C160.516 59.1875 160.477 58.6641 160.477 58.1406ZM160.922 53.2773L160.945 55.1875H159.059C158.613 55.1875 158.227 55.2383 157.898 55.3398C157.57 55.4414 157.301 55.5859 157.09 55.7734C156.879 55.9531 156.723 56.1641 156.621 56.4062C156.527 56.6484 156.48 56.9141 156.48 57.2031C156.48 57.4922 156.547 57.7539 156.68 57.9883C156.812 58.2148 157.004 58.3945 157.254 58.5273C157.504 58.6523 157.797 58.7148 158.133 58.7148C158.641 58.7148 159.082 58.6133 159.457 58.4102C159.832 58.207 160.121 57.957 160.324 57.6602C160.535 57.3633 160.645 57.082 160.652 56.8164L161.543 58.2461C161.418 58.5664 161.246 58.8984 161.027 59.2422C160.816 59.5859 160.547 59.9102 160.219 60.2148C159.891 60.5117 159.496 60.7578 159.035 60.9531C158.574 61.1406 158.027 61.2344 157.395 61.2344C156.59 61.2344 155.859 61.0742 155.203 60.7539C154.555 60.4258 154.039 59.9766 153.656 59.4062C153.281 58.8281 153.094 58.1719 153.094 57.4375C153.094 56.7734 153.219 56.1836 153.469 55.668C153.719 55.1523 154.086 54.7188 154.57 54.3672C155.062 54.0078 155.676 53.7383 156.41 53.5586C157.145 53.3711 157.996 53.2773 158.965 53.2773H160.922ZM174.504 48.3203H177.562V60.5781C177.562 61.7344 177.305 62.7148 176.789 63.5195C176.281 64.332 175.57 64.9453 174.656 65.3594C173.742 65.7812 172.68 65.9922 171.469 65.9922C170.938 65.9922 170.375 65.9219 169.781 65.7812C169.195 65.6406 168.633 65.4219 168.094 65.125C167.562 64.8281 167.117 64.4531 166.758 64L168.246 62.0078C168.637 62.4609 169.09 62.8125 169.605 63.0625C170.121 63.3203 170.691 63.4492 171.316 63.4492C171.926 63.4492 172.441 63.3359 172.863 63.1094C173.285 62.8906 173.609 62.5664 173.836 62.1367C174.062 61.7148 174.176 61.2031 174.176 60.6016V51.25L174.504 48.3203ZM165.973 54.8125V54.5664C165.973 53.5977 166.09 52.7188 166.324 51.9297C166.566 51.1328 166.906 50.4492 167.344 49.8789C167.789 49.3086 168.328 48.8672 168.961 48.5547C169.594 48.2422 170.309 48.0859 171.105 48.0859C171.949 48.0859 172.656 48.2422 173.227 48.5547C173.797 48.8672 174.266 49.3125 174.633 49.8906C175 50.4609 175.285 51.1367 175.488 51.918C175.699 52.6914 175.863 53.5391 175.98 54.4609V55C175.863 55.8828 175.688 56.7031 175.453 57.4609C175.219 58.2188 174.91 58.8828 174.527 59.4531C174.145 60.0156 173.668 60.4531 173.098 60.7656C172.535 61.0781 171.863 61.2344 171.082 61.2344C170.301 61.2344 169.594 61.0742 168.961 60.7539C168.336 60.4336 167.801 59.9844 167.355 59.4062C166.91 58.8281 166.566 58.1484 166.324 57.3672C166.09 56.5859 165.973 55.7344 165.973 54.8125ZM169.348 54.5664V54.8125C169.348 55.3359 169.398 55.8242 169.5 56.2773C169.602 56.7305 169.758 57.1328 169.969 57.4844C170.188 57.8281 170.457 58.0977 170.777 58.293C171.105 58.4805 171.492 58.5742 171.938 58.5742C172.555 58.5742 173.059 58.4453 173.449 58.1875C173.84 57.9219 174.133 57.5586 174.328 57.0977C174.523 56.6367 174.637 56.1055 174.668 55.5039V53.9688C174.652 53.4766 174.586 53.0352 174.469 52.6445C174.352 52.2461 174.188 51.9062 173.977 51.625C173.766 51.3438 173.492 51.125 173.156 50.9688C172.82 50.8125 172.422 50.7344 171.961 50.7344C171.516 50.7344 171.129 50.8359 170.801 51.0391C170.48 51.2344 170.211 51.5039 169.992 51.8477C169.781 52.1914 169.621 52.5977 169.512 53.0664C169.402 53.5273 169.348 54.0273 169.348 54.5664ZM183.562 51.0859V61H180.188V48.3203H183.363L183.562 51.0859ZM187.383 48.2383L187.324 51.3672C187.16 51.3438 186.961 51.3242 186.727 51.3086C186.5 51.2852 186.293 51.2734 186.105 51.2734C185.629 51.2734 185.215 51.3359 184.863 51.4609C184.52 51.5781 184.23 51.7539 183.996 51.9883C183.77 52.2227 183.598 52.5078 183.48 52.8438C183.371 53.1797 183.309 53.5625 183.293 53.9922L182.613 53.7812C182.613 52.9609 182.695 52.207 182.859 51.5195C183.023 50.8242 183.262 50.2188 183.574 49.7031C183.895 49.1875 184.285 48.7891 184.746 48.5078C185.207 48.2266 185.734 48.0859 186.328 48.0859C186.516 48.0859 186.707 48.1016 186.902 48.1328C187.098 48.1562 187.258 48.1914 187.383 48.2383ZM195.422 58.1406V52.4922C195.422 52.0859 195.355 51.7383 195.223 51.4492C195.09 51.1523 194.883 50.9219 194.602 50.7578C194.328 50.5938 193.973 50.5117 193.535 50.5117C193.16 50.5117 192.836 50.5781 192.562 50.7109C192.289 50.8359 192.078 51.0195 191.93 51.2617C191.781 51.4961 191.707 51.7734 191.707 52.0938H188.332C188.332 51.5547 188.457 51.043 188.707 50.5586C188.957 50.0742 189.32 49.6484 189.797 49.2812C190.273 48.9062 190.84 48.6133 191.496 48.4023C192.16 48.1914 192.902 48.0859 193.723 48.0859C194.707 48.0859 195.582 48.25 196.348 48.5781C197.113 48.9062 197.715 49.3984 198.152 50.0547C198.598 50.7109 198.82 51.5312 198.82 52.5156V57.9414C198.82 58.6367 198.863 59.207 198.949 59.6523C199.035 60.0898 199.16 60.4727 199.324 60.8008V61H195.914C195.75 60.6562 195.625 60.2266 195.539 59.7109C195.461 59.1875 195.422 58.6641 195.422 58.1406ZM195.867 53.2773L195.891 55.1875H194.004C193.559 55.1875 193.172 55.2383 192.844 55.3398C192.516 55.4414 192.246 55.5859 192.035 55.7734C191.824 55.9531 191.668 56.1641 191.566 56.4062C191.473 56.6484 191.426 56.9141 191.426 57.2031C191.426 57.4922 191.492 57.7539 191.625 57.9883C191.758 58.2148 191.949 58.3945 192.199 58.5273C192.449 58.6523 192.742 58.7148 193.078 58.7148C193.586 58.7148 194.027 58.6133 194.402 58.4102C194.777 58.207 195.066 57.957 195.27 57.6602C195.48 57.3633 195.59 57.082 195.598 56.8164L196.488 58.2461C196.363 58.5664 196.191 58.8984 195.973 59.2422C195.762 59.5859 195.492 59.9102 195.164 60.2148C194.836 60.5117 194.441 60.7578 193.98 60.9531C193.52 61.1406 192.973 61.2344 192.34 61.2344C191.535 61.2344 190.805 61.0742 190.148 60.7539C189.5 60.4258 188.984 59.9766 188.602 59.4062C188.227 58.8281 188.039 58.1719 188.039 57.4375C188.039 56.7734 188.164 56.1836 188.414 55.668C188.664 55.1523 189.031 54.7188 189.516 54.3672C190.008 54.0078 190.621 53.7383 191.355 53.5586C192.09 53.3711 192.941 53.2773 193.91 53.2773H195.867ZM204.797 50.9453V61H201.41V48.3203H204.586L204.797 50.9453ZM204.328 54.2148H203.391C203.391 53.332 203.496 52.5195 203.707 51.7773C203.926 51.0273 204.242 50.3789 204.656 49.832C205.078 49.2773 205.598 48.8477 206.215 48.543C206.832 48.2383 207.547 48.0859 208.359 48.0859C208.922 48.0859 209.438 48.1719 209.906 48.3438C210.375 48.5078 210.777 48.7695 211.113 49.1289C211.457 49.4805 211.723 49.9414 211.91 50.5117C212.098 51.0742 212.191 51.75 212.191 52.5391V61H208.816V52.9141C208.816 52.3359 208.738 51.8906 208.582 51.5781C208.426 51.2656 208.203 51.0469 207.914 50.9219C207.633 50.7969 207.293 50.7344 206.895 50.7344C206.457 50.7344 206.074 50.8242 205.746 51.0039C205.426 51.1836 205.16 51.4336 204.949 51.7539C204.738 52.0664 204.582 52.4336 204.48 52.8555C204.379 53.2773 204.328 53.7305 204.328 54.2148ZM211.875 53.8281L210.668 53.9805C210.668 53.1523 210.77 52.3828 210.973 51.6719C211.184 50.9609 211.492 50.3359 211.898 49.7969C212.312 49.2578 212.824 48.8398 213.434 48.543C214.043 48.2383 214.746 48.0859 215.543 48.0859C216.152 48.0859 216.707 48.1758 217.207 48.3555C217.707 48.5273 218.133 48.8047 218.484 49.1875C218.844 49.5625 219.117 50.0547 219.305 50.6641C219.5 51.2734 219.598 52.0195 219.598 52.9023V61H216.211V52.9023C216.211 52.3164 216.133 51.8711 215.977 51.5664C215.828 51.2539 215.609 51.0391 215.32 50.9219C215.039 50.7969 214.703 50.7344 214.312 50.7344C213.906 50.7344 213.551 50.8164 213.246 50.9805C212.941 51.1367 212.688 51.3555 212.484 51.6367C212.281 51.918 212.129 52.2461 212.027 52.6211C211.926 52.9883 211.875 53.3906 211.875 53.8281ZM233.426 58.5977C233.84 58.5977 234.207 58.5195 234.527 58.3633C234.848 58.1992 235.098 57.9727 235.277 57.6836C235.465 57.3867 235.562 57.0391 235.57 56.6406H238.746C238.738 57.5312 238.5 58.3242 238.031 59.0195C237.562 59.707 236.934 60.25 236.145 60.6484C235.355 61.0391 234.473 61.2344 233.496 61.2344C232.512 61.2344 231.652 61.0703 230.918 60.7422C230.191 60.4141 229.586 59.9609 229.102 59.3828C228.617 58.7969 228.254 58.1172 228.012 57.3438C227.77 56.5625 227.648 55.7266 227.648 54.8359V54.4961C227.648 53.5977 227.77 52.7617 228.012 51.9883C228.254 51.207 228.617 50.5273 229.102 49.9492C229.586 49.3633 230.191 48.9062 230.918 48.5781C231.645 48.25 232.496 48.0859 233.473 48.0859C234.512 48.0859 235.422 48.2852 236.203 48.6836C236.992 49.082 237.609 49.6523 238.055 50.3945C238.508 51.1289 238.738 52 238.746 53.0078H235.57C235.562 52.5859 235.473 52.2031 235.301 51.8594C235.137 51.5156 234.895 51.2422 234.574 51.0391C234.262 50.8281 233.875 50.7227 233.414 50.7227C232.922 50.7227 232.52 50.8281 232.207 51.0391C231.895 51.2422 231.652 51.5234 231.48 51.8828C231.309 52.2344 231.188 52.6367 231.117 53.0898C231.055 53.5352 231.023 54.0039 231.023 54.4961V54.8359C231.023 55.3281 231.055 55.8008 231.117 56.2539C231.18 56.707 231.297 57.1094 231.469 57.4609C231.648 57.8125 231.895 58.0898 232.207 58.293C232.52 58.4961 232.926 58.5977 233.426 58.5977ZM244.266 43V61H240.879V43H244.266ZM246.516 54.7891V54.543C246.516 53.6133 246.648 52.7578 246.914 51.9766C247.18 51.1875 247.566 50.5039 248.074 49.9258C248.582 49.3477 249.207 48.8984 249.949 48.5781C250.691 48.25 251.543 48.0859 252.504 48.0859C253.465 48.0859 254.32 48.25 255.07 48.5781C255.82 48.8984 256.449 49.3477 256.957 49.9258C257.473 50.5039 257.863 51.1875 258.129 51.9766C258.395 52.7578 258.527 53.6133 258.527 54.543V54.7891C258.527 55.7109 258.395 56.5664 258.129 57.3555C257.863 58.1367 257.473 58.8203 256.957 59.4062C256.449 59.9844 255.824 60.4336 255.082 60.7539C254.34 61.0742 253.488 61.2344 252.527 61.2344C251.566 61.2344 250.711 61.0742 249.961 60.7539C249.219 60.4336 248.59 59.9844 248.074 59.4062C247.566 58.8203 247.18 58.1367 246.914 57.3555C246.648 56.5664 246.516 55.7109 246.516 54.7891ZM249.891 54.543V54.7891C249.891 55.3203 249.938 55.8164 250.031 56.2773C250.125 56.7383 250.273 57.1445 250.477 57.4961C250.688 57.8398 250.961 58.1094 251.297 58.3047C251.633 58.5 252.043 58.5977 252.527 58.5977C252.996 58.5977 253.398 58.5 253.734 58.3047C254.07 58.1094 254.34 57.8398 254.543 57.4961C254.746 57.1445 254.895 56.7383 254.988 56.2773C255.09 55.8164 255.141 55.3203 255.141 54.7891V54.543C255.141 54.0273 255.09 53.543 254.988 53.0898C254.895 52.6289 254.742 52.2227 254.531 51.8711C254.328 51.5117 254.059 51.2305 253.723 51.0273C253.387 50.8242 252.98 50.7227 252.504 50.7227C252.027 50.7227 251.621 50.8242 251.285 51.0273C250.957 51.2305 250.688 51.5117 250.477 51.8711C250.273 52.2227 250.125 52.6289 250.031 53.0898C249.938 53.543 249.891 54.0273 249.891 54.543ZM263.906 51.0273V61H260.531V48.3203H263.695L263.906 51.0273ZM263.414 54.2148H262.5C262.5 53.2773 262.621 52.4336 262.863 51.6836C263.105 50.9258 263.445 50.2812 263.883 49.75C264.32 49.2109 264.84 48.8008 265.441 48.5195C266.051 48.2305 266.73 48.0859 267.48 48.0859C268.074 48.0859 268.617 48.1719 269.109 48.3438C269.602 48.5156 270.023 48.7891 270.375 49.1641C270.734 49.5391 271.008 50.0352 271.195 50.6523C271.391 51.2695 271.488 52.0234 271.488 52.9141V61H268.09V52.9023C268.09 52.3398 268.012 51.9023 267.855 51.5898C267.699 51.2773 267.469 51.0586 267.164 50.9336C266.867 50.8008 266.5 50.7344 266.062 50.7344C265.609 50.7344 265.215 50.8242 264.879 51.0039C264.551 51.1836 264.277 51.4336 264.059 51.7539C263.848 52.0664 263.688 52.4336 263.578 52.8555C263.469 53.2773 263.414 53.7305 263.414 54.2148ZM279.891 61.2344C278.906 61.2344 278.023 61.0781 277.242 60.7656C276.461 60.4453 275.797 60.0039 275.25 59.4414C274.711 58.8789 274.297 58.2266 274.008 57.4844C273.719 56.7344 273.574 55.9375 273.574 55.0938V54.625C273.574 53.6641 273.711 52.7852 273.984 51.9883C274.258 51.1914 274.648 50.5 275.156 49.9141C275.672 49.3281 276.297 48.8789 277.031 48.5664C277.766 48.2461 278.594 48.0859 279.516 48.0859C280.414 48.0859 281.211 48.2344 281.906 48.5312C282.602 48.8281 283.184 49.25 283.652 49.7969C284.129 50.3438 284.488 51 284.73 51.7656C284.973 52.5234 285.094 53.3672 285.094 54.2969V55.7031H275.016V53.4531H281.777V53.1953C281.777 52.7266 281.691 52.3086 281.52 51.9414C281.355 51.5664 281.105 51.2695 280.77 51.0508C280.434 50.832 280.004 50.7227 279.48 50.7227C279.035 50.7227 278.652 50.8203 278.332 51.0156C278.012 51.2109 277.75 51.4844 277.547 51.8359C277.352 52.1875 277.203 52.6016 277.102 53.0781C277.008 53.5469 276.961 54.0625 276.961 54.625V55.0938C276.961 55.6016 277.031 56.0703 277.172 56.5C277.32 56.9297 277.527 57.3008 277.793 57.6133C278.066 57.9258 278.395 58.168 278.777 58.3398C279.168 58.5117 279.609 58.5977 280.102 58.5977C280.711 58.5977 281.277 58.4805 281.801 58.2461C282.332 58.0039 282.789 57.6406 283.172 57.1562L284.812 58.9375C284.547 59.3203 284.184 59.6875 283.723 60.0391C283.27 60.3906 282.723 60.6797 282.082 60.9062C281.441 61.125 280.711 61.2344 279.891 61.2344Z" fill="#888888"/>
<path d="M104.344 84.875V119H96.1406V84.875H104.344ZM117.727 99.0078V119H109.828V93.6406H117.234L117.727 99.0078ZM116.766 105.453L114.961 105.5C114.961 103.719 115.172 102.078 115.594 100.578C116.016 99.0781 116.641 97.7734 117.469 96.6641C118.297 95.5547 119.312 94.6953 120.516 94.0859C121.734 93.4766 123.141 93.1719 124.734 93.1719C125.844 93.1719 126.852 93.3438 127.758 93.6875C128.664 94.0156 129.445 94.5391 130.102 95.2578C130.758 95.9609 131.258 96.8828 131.602 98.0234C131.961 99.1484 132.141 100.5 132.141 102.078V119H124.242V103.086C124.242 102.008 124.117 101.195 123.867 100.648C123.633 100.102 123.289 99.7344 122.836 99.5469C122.383 99.3594 121.828 99.2656 121.172 99.2656C120.484 99.2656 119.867 99.4219 119.32 99.7344C118.773 100.047 118.305 100.484 117.914 101.047C117.539 101.594 117.25 102.242 117.047 102.992C116.859 103.742 116.766 104.562 116.766 105.453ZM131.25 105.453L129.047 105.5C129.047 103.719 129.242 102.078 129.633 100.578C130.039 99.0781 130.641 97.7734 131.438 96.6641C132.25 95.5547 133.258 94.6953 134.461 94.0859C135.664 93.4766 137.062 93.1719 138.656 93.1719C139.812 93.1719 140.875 93.3438 141.844 93.6875C142.812 94.0312 143.648 94.5859 144.352 95.3516C145.055 96.1172 145.602 97.1328 145.992 98.3984C146.383 99.6484 146.578 101.195 146.578 103.039V119H138.656V103.039C138.656 101.992 138.531 101.203 138.281 100.672C138.047 100.125 137.703 99.7578 137.25 99.5703C136.797 99.3672 136.258 99.2656 135.633 99.2656C134.883 99.2656 134.234 99.4219 133.688 99.7344C133.141 100.047 132.68 100.484 132.305 101.047C131.945 101.594 131.68 102.242 131.508 102.992C131.336 103.742 131.25 104.562 131.25 105.453ZM159.07 98.5156V128.75H151.172V93.6406H158.531L159.07 98.5156ZM174.633 106.016V106.508C174.633 108.352 174.422 110.062 174 111.641C173.578 113.219 172.953 114.594 172.125 115.766C171.297 116.938 170.266 117.852 169.031 118.508C167.812 119.148 166.398 119.469 164.789 119.469C163.273 119.469 161.969 119.133 160.875 118.461C159.781 117.789 158.867 116.859 158.133 115.672C157.398 114.484 156.805 113.125 156.352 111.594C155.898 110.062 155.539 108.445 155.273 106.742V106.109C155.539 104.281 155.898 102.586 156.352 101.023C156.805 99.4453 157.398 98.0703 158.133 96.8984C158.867 95.7266 159.773 94.8125 160.852 94.1562C161.945 93.5 163.25 93.1719 164.766 93.1719C166.375 93.1719 167.789 93.4766 169.008 94.0859C170.242 94.6953 171.273 95.5703 172.102 96.7109C172.945 97.8359 173.578 99.1875 174 100.766C174.422 102.344 174.633 104.094 174.633 106.016ZM166.734 106.508V106.016C166.734 105.031 166.664 104.133 166.523 103.32C166.383 102.492 166.156 101.773 165.844 101.164C165.547 100.555 165.148 100.086 164.648 99.7578C164.148 99.4297 163.531 99.2656 162.797 99.2656C161.953 99.2656 161.242 99.3984 160.664 99.6641C160.102 99.9141 159.648 100.305 159.305 100.836C158.977 101.352 158.742 102 158.602 102.781C158.477 103.547 158.422 104.445 158.438 105.477V107.398C158.406 108.586 158.523 109.633 158.789 110.539C159.055 111.43 159.516 112.125 160.172 112.625C160.828 113.125 161.719 113.375 162.844 113.375C163.594 113.375 164.219 113.203 164.719 112.859C165.219 112.5 165.617 112.008 165.914 111.383C166.211 110.742 166.422 110.008 166.547 109.18C166.672 108.352 166.734 107.461 166.734 106.508ZM186.492 83V119H178.57V83H186.492ZM203.648 119.469C201.586 119.469 199.742 119.148 198.117 118.508C196.492 117.852 195.117 116.953 193.992 115.812C192.883 114.672 192.031 113.359 191.438 111.875C190.859 110.391 190.57 108.82 190.57 107.164V106.273C190.57 104.414 190.828 102.695 191.344 101.117C191.859 99.5234 192.625 98.1328 193.641 96.9453C194.656 95.7578 195.93 94.8359 197.461 94.1797C198.992 93.5078 200.773 93.1719 202.805 93.1719C204.602 93.1719 206.211 93.4609 207.633 94.0391C209.055 94.6172 210.258 95.4453 211.242 96.5234C212.242 97.6016 213 98.9062 213.516 100.438C214.047 101.969 214.312 103.688 214.312 105.594V108.805H193.594V103.859H206.602V103.25C206.617 102.406 206.469 101.688 206.156 101.094C205.859 100.5 205.422 100.047 204.844 99.7344C204.266 99.4219 203.562 99.2656 202.734 99.2656C201.875 99.2656 201.164 99.4531 200.602 99.8281C200.055 100.203 199.625 100.719 199.312 101.375C199.016 102.016 198.805 102.758 198.68 103.602C198.555 104.445 198.492 105.336 198.492 106.273V107.164C198.492 108.102 198.617 108.953 198.867 109.719C199.133 110.484 199.508 111.141 199.992 111.688C200.492 112.219 201.086 112.633 201.773 112.93C202.477 113.227 203.273 113.375 204.164 113.375C205.242 113.375 206.305 113.172 207.352 112.766C208.398 112.359 209.297 111.688 210.047 110.75L213.633 115.016C213.117 115.75 212.383 116.461 211.43 117.148C210.492 117.836 209.367 118.398 208.055 118.836C206.742 119.258 205.273 119.469 203.648 119.469ZM225.492 99.0078V119H217.594V93.6406H225L225.492 99.0078ZM224.531 105.453L222.727 105.5C222.727 103.719 222.938 102.078 223.359 100.578C223.781 99.0781 224.406 97.7734 225.234 96.6641C226.062 95.5547 227.078 94.6953 228.281 94.0859C229.5 93.4766 230.906 93.1719 232.5 93.1719C233.609 93.1719 234.617 93.3438 235.523 93.6875C236.43 94.0156 237.211 94.5391 237.867 95.2578C238.523 95.9609 239.023 96.8828 239.367 98.0234C239.727 99.1484 239.906 100.5 239.906 102.078V119H232.008V103.086C232.008 102.008 231.883 101.195 231.633 100.648C231.398 100.102 231.055 99.7344 230.602 99.5469C230.148 99.3594 229.594 99.2656 228.938 99.2656C228.25 99.2656 227.633 99.4219 227.086 99.7344C226.539 100.047 226.07 100.484 225.68 101.047C225.305 101.594 225.016 102.242 224.812 102.992C224.625 103.742 224.531 104.562 224.531 105.453ZM239.016 105.453L236.812 105.5C236.812 103.719 237.008 102.078 237.398 100.578C237.805 99.0781 238.406 97.7734 239.203 96.6641C240.016 95.5547 241.023 94.6953 242.227 94.0859C243.43 93.4766 244.828 93.1719 246.422 93.1719C247.578 93.1719 248.641 93.3438 249.609 93.6875C250.578 94.0312 251.414 94.5859 252.117 95.3516C252.82 96.1172 253.367 97.1328 253.758 98.3984C254.148 99.6484 254.344 101.195 254.344 103.039V119H246.422V103.039C246.422 101.992 246.297 101.203 246.047 100.672C245.812 100.125 245.469 99.7578 245.016 99.5703C244.562 99.3672 244.023 99.2656 243.398 99.2656C242.648 99.2656 242 99.4219 241.453 99.7344C240.906 100.047 240.445 100.484 240.07 101.047C239.711 101.594 239.445 102.242 239.273 102.992C239.102 103.742 239.016 104.562 239.016 105.453ZM271.148 119.469C269.086 119.469 267.242 119.148 265.617 118.508C263.992 117.852 262.617 116.953 261.492 115.812C260.383 114.672 259.531 113.359 258.938 111.875C258.359 110.391 258.07 108.82 258.07 107.164V106.273C258.07 104.414 258.328 102.695 258.844 101.117C259.359 99.5234 260.125 98.1328 261.141 96.9453C262.156 95.7578 263.43 94.8359 264.961 94.1797C266.492 93.5078 268.273 93.1719 270.305 93.1719C272.102 93.1719 273.711 93.4609 275.133 94.0391C276.555 94.6172 277.758 95.4453 278.742 96.5234C279.742 97.6016 280.5 98.9062 281.016 100.438C281.547 101.969 281.812 103.688 281.812 105.594V108.805H261.094V103.859H274.102V103.25C274.117 102.406 273.969 101.688 273.656 101.094C273.359 100.5 272.922 100.047 272.344 99.7344C271.766 99.4219 271.062 99.2656 270.234 99.2656C269.375 99.2656 268.664 99.4531 268.102 99.8281C267.555 100.203 267.125 100.719 266.812 101.375C266.516 102.016 266.305 102.758 266.18 103.602C266.055 104.445 265.992 105.336 265.992 106.273V107.164C265.992 108.102 266.117 108.953 266.367 109.719C266.633 110.484 267.008 111.141 267.492 111.688C267.992 112.219 268.586 112.633 269.273 112.93C269.977 113.227 270.773 113.375 271.664 113.375C272.742 113.375 273.805 113.172 274.852 112.766C275.898 112.359 276.797 111.688 277.547 110.75L281.133 115.016C280.617 115.75 279.883 116.461 278.93 117.148C277.992 117.836 276.867 118.398 275.555 118.836C274.242 119.258 272.773 119.469 271.148 119.469ZM292.781 99.0547V119H284.883V93.6406H292.289L292.781 99.0547ZM291.844 105.453L289.992 105.5C289.992 103.562 290.227 101.836 290.695 100.32C291.164 98.7891 291.828 97.4922 292.688 96.4297C293.547 95.3672 294.57 94.5625 295.758 94.0156C296.961 93.4531 298.297 93.1719 299.766 93.1719C300.938 93.1719 302.008 93.3438 302.977 93.6875C303.961 94.0312 304.805 94.5859 305.508 95.3516C306.227 96.1172 306.773 97.1328 307.148 98.3984C307.539 99.6484 307.734 101.195 307.734 103.039V119H299.789V103.016C299.789 102 299.648 101.227 299.367 100.695C299.086 100.148 298.68 99.7734 298.148 99.5703C297.617 99.3672 296.969 99.2656 296.203 99.2656C295.391 99.2656 294.703 99.4219 294.141 99.7344C293.578 100.047 293.125 100.484 292.781 101.047C292.453 101.594 292.211 102.242 292.055 102.992C291.914 103.742 291.844 104.562 291.844 105.453ZM325.477 93.6406V99.125H310.195V93.6406H325.477ZM313.406 87.3359H321.305V110.727C321.305 111.398 321.383 111.922 321.539 112.297C321.695 112.656 321.961 112.914 322.336 113.07C322.727 113.211 323.242 113.281 323.883 113.281C324.336 113.281 324.711 113.273 325.008 113.258C325.305 113.227 325.586 113.188 325.852 113.141V118.789C325.18 119.008 324.477 119.172 323.742 119.281C323.008 119.406 322.227 119.469 321.398 119.469C319.711 119.469 318.266 119.203 317.062 118.672C315.875 118.141 314.969 117.305 314.344 116.164C313.719 115.023 313.406 113.539 313.406 111.711V87.3359ZM341.789 112.625V102.172C341.789 101.453 341.688 100.836 341.484 100.32C341.281 99.8047 340.961 99.4062 340.523 99.125C340.086 98.8281 339.5 98.6797 338.766 98.6797C338.172 98.6797 337.664 98.7812 337.242 98.9844C336.82 99.1875 336.5 99.4922 336.281 99.8984C336.062 100.305 335.953 100.82 335.953 101.445H328.055C328.055 100.273 328.312 99.1875 328.828 98.1875C329.359 97.1719 330.109 96.2891 331.078 95.5391C332.062 94.7891 333.234 94.2109 334.594 93.8047C335.969 93.3828 337.5 93.1719 339.188 93.1719C341.203 93.1719 343 93.5078 344.578 94.1797C346.172 94.8516 347.43 95.8594 348.352 97.2031C349.273 98.5312 349.734 100.203 349.734 102.219V112.602C349.734 114.258 349.828 115.516 350.016 116.375C350.203 117.219 350.469 117.961 350.812 118.602V119H342.891C342.516 118.219 342.234 117.266 342.047 116.141C341.875 115 341.789 113.828 341.789 112.625ZM342.75 103.508L342.797 107.727H339.305C338.57 107.727 337.945 107.828 337.43 108.031C336.93 108.234 336.523 108.516 336.211 108.875C335.914 109.219 335.695 109.609 335.555 110.047C335.43 110.484 335.367 110.945 335.367 111.43C335.367 111.898 335.477 112.32 335.695 112.695C335.93 113.055 336.242 113.336 336.633 113.539C337.023 113.742 337.461 113.844 337.945 113.844C338.82 113.844 339.562 113.68 340.172 113.352C340.797 113.008 341.273 112.594 341.602 112.109C341.93 111.625 342.094 111.172 342.094 110.75L343.828 113.984C343.516 114.609 343.156 115.242 342.75 115.883C342.359 116.523 341.867 117.117 341.273 117.664C340.695 118.195 339.984 118.633 339.141 118.977C338.297 119.305 337.273 119.469 336.07 119.469C334.508 119.469 333.07 119.148 331.758 118.508C330.461 117.867 329.422 116.977 328.641 115.836C327.859 114.68 327.469 113.352 327.469 111.852C327.469 110.539 327.703 109.367 328.172 108.336C328.656 107.305 329.383 106.43 330.352 105.711C331.32 104.992 332.555 104.445 334.055 104.07C335.555 103.695 337.32 103.508 339.352 103.508H342.75ZM367.477 93.6406V99.125H352.195V93.6406H367.477ZM355.406 87.3359H363.305V110.727C363.305 111.398 363.383 111.922 363.539 112.297C363.695 112.656 363.961 112.914 364.336 113.07C364.727 113.211 365.242 113.281 365.883 113.281C366.336 113.281 366.711 113.273 367.008 113.258C367.305 113.227 367.586 113.188 367.852 113.141V118.789C367.18 119.008 366.477 119.172 365.742 119.281C365.008 119.406 364.227 119.469 363.398 119.469C361.711 119.469 360.266 119.203 359.062 118.672C357.875 118.141 356.969 117.305 356.344 116.164C355.719 115.023 355.406 113.539 355.406 111.711V87.3359ZM378.961 93.6406V119H371.039V93.6406H378.961ZM370.57 87.1016C370.57 85.9766 370.977 85.0547 371.789 84.3359C372.602 83.6172 373.656 83.2578 374.953 83.2578C376.25 83.2578 377.305 83.6172 378.117 84.3359C378.93 85.0547 379.336 85.9766 379.336 87.1016C379.336 88.2266 378.93 89.1484 378.117 89.8672C377.305 90.5859 376.25 90.9453 374.953 90.9453C373.656 90.9453 372.602 90.5859 371.789 89.8672C370.977 89.1484 370.57 88.2266 370.57 87.1016ZM382.852 106.578V106.086C382.852 104.227 383.117 102.516 383.648 100.953C384.18 99.375 384.961 98.0078 385.992 96.8516C387.023 95.6953 388.297 94.7969 389.812 94.1562C391.328 93.5 393.078 93.1719 395.062 93.1719C397.062 93.1719 398.82 93.5 400.336 94.1562C401.867 94.7969 403.148 95.6953 404.18 96.8516C405.211 98.0078 405.992 99.375 406.523 100.953C407.055 102.516 407.32 104.227 407.32 106.086V106.578C407.32 108.422 407.055 110.133 406.523 111.711C405.992 113.273 405.211 114.641 404.18 115.812C403.148 116.969 401.875 117.867 400.359 118.508C398.844 119.148 397.094 119.469 395.109 119.469C393.125 119.469 391.367 119.148 389.836 118.508C388.305 117.867 387.023 116.969 385.992 115.812C384.961 114.641 384.18 113.273 383.648 111.711C383.117 110.133 382.852 108.422 382.852 106.578ZM390.75 106.086V106.578C390.75 107.531 390.82 108.422 390.961 109.25C391.102 110.078 391.336 110.805 391.664 111.43C391.992 112.039 392.438 112.516 393 112.859C393.562 113.203 394.266 113.375 395.109 113.375C395.938 113.375 396.625 113.203 397.172 112.859C397.734 112.516 398.18 112.039 398.508 111.43C398.836 110.805 399.07 110.078 399.211 109.25C399.352 108.422 399.422 107.531 399.422 106.578V106.086C399.422 105.164 399.352 104.297 399.211 103.484C399.07 102.656 398.836 101.93 398.508 101.305C398.18 100.664 397.734 100.164 397.172 99.8047C396.609 99.4453 395.906 99.2656 395.062 99.2656C394.234 99.2656 393.539 99.4453 392.977 99.8047C392.43 100.164 391.992 100.664 391.664 101.305C391.336 101.93 391.102 102.656 390.961 103.484C390.82 104.297 390.75 105.164 390.75 106.086ZM418.594 99.0547V119H410.695V93.6406H418.102L418.594 99.0547ZM417.656 105.453L415.805 105.5C415.805 103.562 416.039 101.836 416.508 100.32C416.977 98.7891 417.641 97.4922 418.5 96.4297C419.359 95.3672 420.383 94.5625 421.57 94.0156C422.773 93.4531 424.109 93.1719 425.578 93.1719C426.75 93.1719 427.82 93.3438 428.789 93.6875C429.773 94.0312 430.617 94.5859 431.32 95.3516C432.039 96.1172 432.586 97.1328 432.961 98.3984C433.352 99.6484 433.547 101.195 433.547 103.039V119H425.602V103.016C425.602 102 425.461 101.227 425.18 100.695C424.898 100.148 424.492 99.7734 423.961 99.5703C423.43 99.3672 422.781 99.2656 422.016 99.2656C421.203 99.2656 420.516 99.4219 419.953 99.7344C419.391 100.047 418.938 100.484 418.594 101.047C418.266 101.594 418.023 102.242 417.867 102.992C417.727 103.742 417.656 104.562 417.656 105.453Z" fill="black"/>
<path d="M1134 0H1348C1356.28 0 1363 6.71573 1363 15V148C1363 156.284 1356.28 163 1348 163H1134V0Z" fill="#DD2A7B"/>
<path d="M1281 46.5H1216L1213.5 49V114L1216 116.5H1281L1283.5 114V49L1281 46.5ZM1278.5 111.5H1233.5V101.5H1245C1246.5 104.5 1250 106.5 1253.5 106.5C1259 106.5 1263.5 102 1263.5 96.5C1263.5 91 1259 86.5 1253.5 86.5C1248 86.5 1243.5 91 1243.5 96.5H1228.5V111.5H1218.5V51.5H1228.5V63C1225.5 64.5 1223.5 68 1223.5 71.5C1223.5 77 1228 81.5 1233.5 81.5C1239 81.5 1243.5 77 1243.5 71.5H1253.5C1253.5 77 1258 81.5 1263.5 81.5C1269 81.5 1273.5 77 1273.5 71.5C1273.5 66 1269 61.5 1263.5 61.5C1260 61.5 1256.5 63.5 1255 66.5H1242C1240.5 63.5 1237 61.5 1233.5 61.5V51.5H1278.5V111.5ZM1248.5 96.5C1248.5 93.5 1250.5 91.5 1253.5 91.5C1256.5 91.5 1258.5 93.5 1258.5 96.5C1258.5 99.5 1256.5 101.5 1253.5 101.5C1250.5 101.5 1248.5 99.5 1248.5 96.5ZM1233.5 66.5C1236.5 66.5 1238.5 68.5 1238.5 71.5C1238.5 74.5 1236.5 76.5 1233.5 76.5C1230.5 76.5 1228.5 74.5 1228.5 71.5C1228.5 68.5 1230.5 66.5 1233.5 66.5ZM1263.5 66.5C1266.5 66.5 1268.5 68.5 1268.5 71.5C1268.5 74.5 1266.5 76.5 1263.5 76.5C1260.5 76.5 1258.5 74.5 1258.5 71.5C1258.5 68.5 1260.5 66.5 1263.5 66.5Z" fill="white"/>
</svg>
