<svg width="1363" height="163" viewBox="0 0 1363 163" fill="none" xmlns="http://www.w3.org/2000/svg">
<path d="M0 15C0 6.71573 6.71573 0 15 0H37V163H15C6.71573 163 0 156.284 0 148V15Z" fill="#DD2A7B"/>
<rect width="1097" height="163" transform="translate(37)" fill="#F0F0F0"/>
<path d="M101.906 53.9219L94.3945 51.2383V48.0859L104.602 52.375V54.6367L101.906 53.9219ZM94.3945 56.1719L101.918 53.4297L104.602 52.7852V55.0352L94.3945 59.3242V56.1719ZM116.637 43.9375V61H113.133V43.9375H116.637ZM123.023 51.0273V61H119.648V48.3203H122.812L123.023 51.0273ZM122.531 54.2148H121.617C121.617 53.2773 121.738 52.4336 121.98 51.6836C122.223 50.9258 122.562 50.2812 123 49.75C123.438 49.2109 123.957 48.8008 124.559 48.5195C125.168 48.2305 125.848 48.0859 126.598 48.0859C127.191 48.0859 127.734 48.1719 128.227 48.3438C128.719 48.5156 129.141 48.7891 129.492 49.1641C129.852 49.5391 130.125 50.0352 130.312 50.6523C130.508 51.2695 130.605 52.0234 130.605 52.9141V61H127.207V52.9023C127.207 52.3398 127.129 51.9023 126.973 51.5898C126.816 51.2773 126.586 51.0586 126.281 50.9336C125.984 50.8008 125.617 50.7344 125.18 50.7344C124.727 50.7344 124.332 50.8242 123.996 51.0039C123.668 51.1836 123.395 51.4336 123.176 51.7539C122.965 52.0664 122.805 52.4336 122.695 52.8555C122.586 53.2773 122.531 53.7305 122.531 54.2148ZM140.027 57.4961C140.027 57.2539 139.957 57.0352 139.816 56.8398C139.676 56.6445 139.414 56.4648 139.031 56.3008C138.656 56.1289 138.113 55.9727 137.402 55.832C136.762 55.6914 136.164 55.5156 135.609 55.3047C135.062 55.0859 134.586 54.8242 134.18 54.5195C133.781 54.2148 133.469 53.8555 133.242 53.4414C133.016 53.0195 132.902 52.5391 132.902 52C132.902 51.4688 133.016 50.9688 133.242 50.5C133.477 50.0312 133.809 49.6172 134.238 49.2578C134.676 48.8906 135.207 48.6055 135.832 48.4023C136.465 48.1914 137.176 48.0859 137.965 48.0859C139.066 48.0859 140.012 48.2617 140.801 48.6133C141.598 48.9648 142.207 49.4492 142.629 50.0664C143.059 50.6758 143.273 51.3711 143.273 52.1523H139.898C139.898 51.8242 139.828 51.5312 139.688 51.2734C139.555 51.0078 139.344 50.8008 139.055 50.6523C138.773 50.4961 138.406 50.418 137.953 50.418C137.578 50.418 137.254 50.4844 136.98 50.6172C136.707 50.7422 136.496 50.9141 136.348 51.1328C136.207 51.3438 136.137 51.5781 136.137 51.8359C136.137 52.0312 136.176 52.207 136.254 52.3633C136.34 52.5117 136.477 52.6484 136.664 52.7734C136.852 52.8984 137.094 53.0156 137.391 53.125C137.695 53.2266 138.07 53.3203 138.516 53.4062C139.43 53.5938 140.246 53.8398 140.965 54.1445C141.684 54.4414 142.254 54.8477 142.676 55.3633C143.098 55.8711 143.309 56.5391 143.309 57.3672C143.309 57.9297 143.184 58.4453 142.934 58.9141C142.684 59.3828 142.324 59.793 141.855 60.1445C141.387 60.4883 140.824 60.7578 140.168 60.9531C139.52 61.1406 138.789 61.2344 137.977 61.2344C136.797 61.2344 135.797 61.0234 134.977 60.6016C134.164 60.1797 133.547 59.6445 133.125 58.9961C132.711 58.3398 132.504 57.668 132.504 56.9805H135.703C135.719 57.4414 135.836 57.8125 136.055 58.0938C136.281 58.375 136.566 58.5781 136.91 58.7031C137.262 58.8281 137.641 58.8906 138.047 58.8906C138.484 58.8906 138.848 58.832 139.137 58.7148C139.426 58.5898 139.645 58.4258 139.793 58.2227C139.949 58.0117 140.027 57.7695 140.027 57.4961ZM151.711 48.3203V50.7109H144.328V48.3203H151.711ZM146.156 45.1914H149.531V57.1797C149.531 57.5469 149.578 57.8281 149.672 58.0234C149.773 58.2188 149.922 58.3555 150.117 58.4336C150.312 58.5039 150.559 58.5391 150.855 58.5391C151.066 58.5391 151.254 58.5312 151.418 58.5156C151.59 58.4922 151.734 58.4688 151.852 58.4453L151.863 60.9297C151.574 61.0234 151.262 61.0977 150.926 61.1523C150.59 61.207 150.219 61.2344 149.812 61.2344C149.07 61.2344 148.422 61.1133 147.867 60.8711C147.32 60.6211 146.898 60.2227 146.602 59.6758C146.305 59.1289 146.156 58.4102 146.156 57.5195V45.1914ZM160.477 58.1406V52.4922C160.477 52.0859 160.41 51.7383 160.277 51.4492C160.145 51.1523 159.938 50.9219 159.656 50.7578C159.383 50.5938 159.027 50.5117 158.59 50.5117C158.215 50.5117 157.891 50.5781 157.617 50.7109C157.344 50.8359 157.133 51.0195 156.984 51.2617C156.836 51.4961 156.762 51.7734 156.762 52.0938H153.387C153.387 51.5547 153.512 51.043 153.762 50.5586C154.012 50.0742 154.375 49.6484 154.852 49.2812C155.328 48.9062 155.895 48.6133 156.551 48.4023C157.215 48.1914 157.957 48.0859 158.777 48.0859C159.762 48.0859 160.637 48.25 161.402 48.5781C162.168 48.9062 162.77 49.3984 163.207 50.0547C163.652 50.7109 163.875 51.5312 163.875 52.5156V57.9414C163.875 58.6367 163.918 59.207 164.004 59.6523C164.09 60.0898 164.215 60.4727 164.379 60.8008V61H160.969C160.805 60.6562 160.68 60.2266 160.594 59.7109C160.516 59.1875 160.477 58.6641 160.477 58.1406ZM160.922 53.2773L160.945 55.1875H159.059C158.613 55.1875 158.227 55.2383 157.898 55.3398C157.57 55.4414 157.301 55.5859 157.09 55.7734C156.879 55.9531 156.723 56.1641 156.621 56.4062C156.527 56.6484 156.48 56.9141 156.48 57.2031C156.48 57.4922 156.547 57.7539 156.68 57.9883C156.812 58.2148 157.004 58.3945 157.254 58.5273C157.504 58.6523 157.797 58.7148 158.133 58.7148C158.641 58.7148 159.082 58.6133 159.457 58.4102C159.832 58.207 160.121 57.957 160.324 57.6602C160.535 57.3633 160.645 57.082 160.652 56.8164L161.543 58.2461C161.418 58.5664 161.246 58.8984 161.027 59.2422C160.816 59.5859 160.547 59.9102 160.219 60.2148C159.891 60.5117 159.496 60.7578 159.035 60.9531C158.574 61.1406 158.027 61.2344 157.395 61.2344C156.59 61.2344 155.859 61.0742 155.203 60.7539C154.555 60.4258 154.039 59.9766 153.656 59.4062C153.281 58.8281 153.094 58.1719 153.094 57.4375C153.094 56.7734 153.219 56.1836 153.469 55.668C153.719 55.1523 154.086 54.7188 154.57 54.3672C155.062 54.0078 155.676 53.7383 156.41 53.5586C157.145 53.3711 157.996 53.2773 158.965 53.2773H160.922ZM174.504 48.3203H177.562V60.5781C177.562 61.7344 177.305 62.7148 176.789 63.5195C176.281 64.332 175.57 64.9453 174.656 65.3594C173.742 65.7812 172.68 65.9922 171.469 65.9922C170.938 65.9922 170.375 65.9219 169.781 65.7812C169.195 65.6406 168.633 65.4219 168.094 65.125C167.562 64.8281 167.117 64.4531 166.758 64L168.246 62.0078C168.637 62.4609 169.09 62.8125 169.605 63.0625C170.121 63.3203 170.691 63.4492 171.316 63.4492C171.926 63.4492 172.441 63.3359 172.863 63.1094C173.285 62.8906 173.609 62.5664 173.836 62.1367C174.062 61.7148 174.176 61.2031 174.176 60.6016V51.25L174.504 48.3203ZM165.973 54.8125V54.5664C165.973 53.5977 166.09 52.7188 166.324 51.9297C166.566 51.1328 166.906 50.4492 167.344 49.8789C167.789 49.3086 168.328 48.8672 168.961 48.5547C169.594 48.2422 170.309 48.0859 171.105 48.0859C171.949 48.0859 172.656 48.2422 173.227 48.5547C173.797 48.8672 174.266 49.3125 174.633 49.8906C175 50.4609 175.285 51.1367 175.488 51.918C175.699 52.6914 175.863 53.5391 175.98 54.4609V55C175.863 55.8828 175.688 56.7031 175.453 57.4609C175.219 58.2188 174.91 58.8828 174.527 59.4531C174.145 60.0156 173.668 60.4531 173.098 60.7656C172.535 61.0781 171.863 61.2344 171.082 61.2344C170.301 61.2344 169.594 61.0742 168.961 60.7539C168.336 60.4336 167.801 59.9844 167.355 59.4062C166.91 58.8281 166.566 58.1484 166.324 57.3672C166.09 56.5859 165.973 55.7344 165.973 54.8125ZM169.348 54.5664V54.8125C169.348 55.3359 169.398 55.8242 169.5 56.2773C169.602 56.7305 169.758 57.1328 169.969 57.4844C170.188 57.8281 170.457 58.0977 170.777 58.293C171.105 58.4805 171.492 58.5742 171.938 58.5742C172.555 58.5742 173.059 58.4453 173.449 58.1875C173.84 57.9219 174.133 57.5586 174.328 57.0977C174.523 56.6367 174.637 56.1055 174.668 55.5039V53.9688C174.652 53.4766 174.586 53.0352 174.469 52.6445C174.352 52.2461 174.188 51.9062 173.977 51.625C173.766 51.3438 173.492 51.125 173.156 50.9688C172.82 50.8125 172.422 50.7344 171.961 50.7344C171.516 50.7344 171.129 50.8359 170.801 51.0391C170.48 51.2344 170.211 51.5039 169.992 51.8477C169.781 52.1914 169.621 52.5977 169.512 53.0664C169.402 53.5273 169.348 54.0273 169.348 54.5664ZM183.562 51.0859V61H180.188V48.3203H183.363L183.562 51.0859ZM187.383 48.2383L187.324 51.3672C187.16 51.3438 186.961 51.3242 186.727 51.3086C186.5 51.2852 186.293 51.2734 186.105 51.2734C185.629 51.2734 185.215 51.3359 184.863 51.4609C184.52 51.5781 184.23 51.7539 183.996 51.9883C183.77 52.2227 183.598 52.5078 183.48 52.8438C183.371 53.1797 183.309 53.5625 183.293 53.9922L182.613 53.7812C182.613 52.9609 182.695 52.207 182.859 51.5195C183.023 50.8242 183.262 50.2188 183.574 49.7031C183.895 49.1875 184.285 48.7891 184.746 48.5078C185.207 48.2266 185.734 48.0859 186.328 48.0859C186.516 48.0859 186.707 48.1016 186.902 48.1328C187.098 48.1562 187.258 48.1914 187.383 48.2383ZM195.422 58.1406V52.4922C195.422 52.0859 195.355 51.7383 195.223 51.4492C195.09 51.1523 194.883 50.9219 194.602 50.7578C194.328 50.5938 193.973 50.5117 193.535 50.5117C193.16 50.5117 192.836 50.5781 192.562 50.7109C192.289 50.8359 192.078 51.0195 191.93 51.2617C191.781 51.4961 191.707 51.7734 191.707 52.0938H188.332C188.332 51.5547 188.457 51.043 188.707 50.5586C188.957 50.0742 189.32 49.6484 189.797 49.2812C190.273 48.9062 190.84 48.6133 191.496 48.4023C192.16 48.1914 192.902 48.0859 193.723 48.0859C194.707 48.0859 195.582 48.25 196.348 48.5781C197.113 48.9062 197.715 49.3984 198.152 50.0547C198.598 50.7109 198.82 51.5312 198.82 52.5156V57.9414C198.82 58.6367 198.863 59.207 198.949 59.6523C199.035 60.0898 199.16 60.4727 199.324 60.8008V61H195.914C195.75 60.6562 195.625 60.2266 195.539 59.7109C195.461 59.1875 195.422 58.6641 195.422 58.1406ZM195.867 53.2773L195.891 55.1875H194.004C193.559 55.1875 193.172 55.2383 192.844 55.3398C192.516 55.4414 192.246 55.5859 192.035 55.7734C191.824 55.9531 191.668 56.1641 191.566 56.4062C191.473 56.6484 191.426 56.9141 191.426 57.2031C191.426 57.4922 191.492 57.7539 191.625 57.9883C191.758 58.2148 191.949 58.3945 192.199 58.5273C192.449 58.6523 192.742 58.7148 193.078 58.7148C193.586 58.7148 194.027 58.6133 194.402 58.4102C194.777 58.207 195.066 57.957 195.27 57.6602C195.48 57.3633 195.59 57.082 195.598 56.8164L196.488 58.2461C196.363 58.5664 196.191 58.8984 195.973 59.2422C195.762 59.5859 195.492 59.9102 195.164 60.2148C194.836 60.5117 194.441 60.7578 193.98 60.9531C193.52 61.1406 192.973 61.2344 192.34 61.2344C191.535 61.2344 190.805 61.0742 190.148 60.7539C189.5 60.4258 188.984 59.9766 188.602 59.4062C188.227 58.8281 188.039 58.1719 188.039 57.4375C188.039 56.7734 188.164 56.1836 188.414 55.668C188.664 55.1523 189.031 54.7188 189.516 54.3672C190.008 54.0078 190.621 53.7383 191.355 53.5586C192.09 53.3711 192.941 53.2773 193.91 53.2773H195.867ZM204.797 50.9453V61H201.41V48.3203H204.586L204.797 50.9453ZM204.328 54.2148H203.391C203.391 53.332 203.496 52.5195 203.707 51.7773C203.926 51.0273 204.242 50.3789 204.656 49.832C205.078 49.2773 205.598 48.8477 206.215 48.543C206.832 48.2383 207.547 48.0859 208.359 48.0859C208.922 48.0859 209.438 48.1719 209.906 48.3438C210.375 48.5078 210.777 48.7695 211.113 49.1289C211.457 49.4805 211.723 49.9414 211.91 50.5117C212.098 51.0742 212.191 51.75 212.191 52.5391V61H208.816V52.9141C208.816 52.3359 208.738 51.8906 208.582 51.5781C208.426 51.2656 208.203 51.0469 207.914 50.9219C207.633 50.7969 207.293 50.7344 206.895 50.7344C206.457 50.7344 206.074 50.8242 205.746 51.0039C205.426 51.1836 205.16 51.4336 204.949 51.7539C204.738 52.0664 204.582 52.4336 204.48 52.8555C204.379 53.2773 204.328 53.7305 204.328 54.2148ZM211.875 53.8281L210.668 53.9805C210.668 53.1523 210.77 52.3828 210.973 51.6719C211.184 50.9609 211.492 50.3359 211.898 49.7969C212.312 49.2578 212.824 48.8398 213.434 48.543C214.043 48.2383 214.746 48.0859 215.543 48.0859C216.152 48.0859 216.707 48.1758 217.207 48.3555C217.707 48.5273 218.133 48.8047 218.484 49.1875C218.844 49.5625 219.117 50.0547 219.305 50.6641C219.5 51.2734 219.598 52.0195 219.598 52.9023V61H216.211V52.9023C216.211 52.3164 216.133 51.8711 215.977 51.5664C215.828 51.2539 215.609 51.0391 215.32 50.9219C215.039 50.7969 214.703 50.7344 214.312 50.7344C213.906 50.7344 213.551 50.8164 213.246 50.9805C212.941 51.1367 212.688 51.3555 212.484 51.6367C212.281 51.918 212.129 52.2461 212.027 52.6211C211.926 52.9883 211.875 53.3906 211.875 53.8281ZM233.426 58.5977C233.84 58.5977 234.207 58.5195 234.527 58.3633C234.848 58.1992 235.098 57.9727 235.277 57.6836C235.465 57.3867 235.562 57.0391 235.57 56.6406H238.746C238.738 57.5312 238.5 58.3242 238.031 59.0195C237.562 59.707 236.934 60.25 236.145 60.6484C235.355 61.0391 234.473 61.2344 233.496 61.2344C232.512 61.2344 231.652 61.0703 230.918 60.7422C230.191 60.4141 229.586 59.9609 229.102 59.3828C228.617 58.7969 228.254 58.1172 228.012 57.3438C227.77 56.5625 227.648 55.7266 227.648 54.8359V54.4961C227.648 53.5977 227.77 52.7617 228.012 51.9883C228.254 51.207 228.617 50.5273 229.102 49.9492C229.586 49.3633 230.191 48.9062 230.918 48.5781C231.645 48.25 232.496 48.0859 233.473 48.0859C234.512 48.0859 235.422 48.2852 236.203 48.6836C236.992 49.082 237.609 49.6523 238.055 50.3945C238.508 51.1289 238.738 52 238.746 53.0078H235.57C235.562 52.5859 235.473 52.2031 235.301 51.8594C235.137 51.5156 234.895 51.2422 234.574 51.0391C234.262 50.8281 233.875 50.7227 233.414 50.7227C232.922 50.7227 232.52 50.8281 232.207 51.0391C231.895 51.2422 231.652 51.5234 231.48 51.8828C231.309 52.2344 231.188 52.6367 231.117 53.0898C231.055 53.5352 231.023 54.0039 231.023 54.4961V54.8359C231.023 55.3281 231.055 55.8008 231.117 56.2539C231.18 56.707 231.297 57.1094 231.469 57.4609C231.648 57.8125 231.895 58.0898 232.207 58.293C232.52 58.4961 232.926 58.5977 233.426 58.5977ZM244.266 43V61H240.879V43H244.266ZM246.516 54.7891V54.543C246.516 53.6133 246.648 52.7578 246.914 51.9766C247.18 51.1875 247.566 50.5039 248.074 49.9258C248.582 49.3477 249.207 48.8984 249.949 48.5781C250.691 48.25 251.543 48.0859 252.504 48.0859C253.465 48.0859 254.32 48.25 255.07 48.5781C255.82 48.8984 256.449 49.3477 256.957 49.9258C257.473 50.5039 257.863 51.1875 258.129 51.9766C258.395 52.7578 258.527 53.6133 258.527 54.543V54.7891C258.527 55.7109 258.395 56.5664 258.129 57.3555C257.863 58.1367 257.473 58.8203 256.957 59.4062C256.449 59.9844 255.824 60.4336 255.082 60.7539C254.34 61.0742 253.488 61.2344 252.527 61.2344C251.566 61.2344 250.711 61.0742 249.961 60.7539C249.219 60.4336 248.59 59.9844 248.074 59.4062C247.566 58.8203 247.18 58.1367 246.914 57.3555C246.648 56.5664 246.516 55.7109 246.516 54.7891ZM249.891 54.543V54.7891C249.891 55.3203 249.938 55.8164 250.031 56.2773C250.125 56.7383 250.273 57.1445 250.477 57.4961C250.688 57.8398 250.961 58.1094 251.297 58.3047C251.633 58.5 252.043 58.5977 252.527 58.5977C252.996 58.5977 253.398 58.5 253.734 58.3047C254.07 58.1094 254.34 57.8398 254.543 57.4961C254.746 57.1445 254.895 56.7383 254.988 56.2773C255.09 55.8164 255.141 55.3203 255.141 54.7891V54.543C255.141 54.0273 255.09 53.543 254.988 53.0898C254.895 52.6289 254.742 52.2227 254.531 51.8711C254.328 51.5117 254.059 51.2305 253.723 51.0273C253.387 50.8242 252.98 50.7227 252.504 50.7227C252.027 50.7227 251.621 50.8242 251.285 51.0273C250.957 51.2305 250.688 51.5117 250.477 51.8711C250.273 52.2227 250.125 52.6289 250.031 53.0898C249.938 53.543 249.891 54.0273 249.891 54.543ZM263.906 51.0273V61H260.531V48.3203H263.695L263.906 51.0273ZM263.414 54.2148H262.5C262.5 53.2773 262.621 52.4336 262.863 51.6836C263.105 50.9258 263.445 50.2812 263.883 49.75C264.32 49.2109 264.84 48.8008 265.441 48.5195C266.051 48.2305 266.73 48.0859 267.48 48.0859C268.074 48.0859 268.617 48.1719 269.109 48.3438C269.602 48.5156 270.023 48.7891 270.375 49.1641C270.734 49.5391 271.008 50.0352 271.195 50.6523C271.391 51.2695 271.488 52.0234 271.488 52.9141V61H268.09V52.9023C268.09 52.3398 268.012 51.9023 267.855 51.5898C267.699 51.2773 267.469 51.0586 267.164 50.9336C266.867 50.8008 266.5 50.7344 266.062 50.7344C265.609 50.7344 265.215 50.8242 264.879 51.0039C264.551 51.1836 264.277 51.4336 264.059 51.7539C263.848 52.0664 263.688 52.4336 263.578 52.8555C263.469 53.2773 263.414 53.7305 263.414 54.2148ZM279.891 61.2344C278.906 61.2344 278.023 61.0781 277.242 60.7656C276.461 60.4453 275.797 60.0039 275.25 59.4414C274.711 58.8789 274.297 58.2266 274.008 57.4844C273.719 56.7344 273.574 55.9375 273.574 55.0938V54.625C273.574 53.6641 273.711 52.7852 273.984 51.9883C274.258 51.1914 274.648 50.5 275.156 49.9141C275.672 49.3281 276.297 48.8789 277.031 48.5664C277.766 48.2461 278.594 48.0859 279.516 48.0859C280.414 48.0859 281.211 48.2344 281.906 48.5312C282.602 48.8281 283.184 49.25 283.652 49.7969C284.129 50.3438 284.488 51 284.73 51.7656C284.973 52.5234 285.094 53.3672 285.094 54.2969V55.7031H275.016V53.4531H281.777V53.1953C281.777 52.7266 281.691 52.3086 281.52 51.9414C281.355 51.5664 281.105 51.2695 280.77 51.0508C280.434 50.832 280.004 50.7227 279.48 50.7227C279.035 50.7227 278.652 50.8203 278.332 51.0156C278.012 51.2109 277.75 51.4844 277.547 51.8359C277.352 52.1875 277.203 52.6016 277.102 53.0781C277.008 53.5469 276.961 54.0625 276.961 54.625V55.0938C276.961 55.6016 277.031 56.0703 277.172 56.5C277.32 56.9297 277.527 57.3008 277.793 57.6133C278.066 57.9258 278.395 58.168 278.777 58.3398C279.168 58.5117 279.609 58.5977 280.102 58.5977C280.711 58.5977 281.277 58.4805 281.801 58.2461C282.332 58.0039 282.789 57.6406 283.172 57.1562L284.812 58.9375C284.547 59.3203 284.184 59.6875 283.723 60.0391C283.27 60.3906 282.723 60.6797 282.082 60.9062C281.441 61.125 280.711 61.2344 279.891 61.2344Z" fill="#888888"/>
<path d="M112.125 84.875V119H103.898V84.875H112.125ZM122.391 84.875V91.2266H93.8672V84.875H122.391ZM135.68 119.469C133.617 119.469 131.773 119.148 130.148 118.508C128.523 117.852 127.148 116.953 126.023 115.812C124.914 114.672 124.062 113.359 123.469 111.875C122.891 110.391 122.602 108.82 122.602 107.164V106.273C122.602 104.414 122.859 102.695 123.375 101.117C123.891 99.5234 124.656 98.1328 125.672 96.9453C126.688 95.7578 127.961 94.8359 129.492 94.1797C131.023 93.5078 132.805 93.1719 134.836 93.1719C136.633 93.1719 138.242 93.4609 139.664 94.0391C141.086 94.6172 142.289 95.4453 143.273 96.5234C144.273 97.6016 145.031 98.9062 145.547 100.438C146.078 101.969 146.344 103.688 146.344 105.594V108.805H125.625V103.859H138.633V103.25C138.648 102.406 138.5 101.688 138.188 101.094C137.891 100.5 137.453 100.047 136.875 99.7344C136.297 99.4219 135.594 99.2656 134.766 99.2656C133.906 99.2656 133.195 99.4531 132.633 99.8281C132.086 100.203 131.656 100.719 131.344 101.375C131.047 102.016 130.836 102.758 130.711 103.602C130.586 104.445 130.523 105.336 130.523 106.273V107.164C130.523 108.102 130.648 108.953 130.898 109.719C131.164 110.484 131.539 111.141 132.023 111.688C132.523 112.219 133.117 112.633 133.805 112.93C134.508 113.227 135.305 113.375 136.195 113.375C137.273 113.375 138.336 113.172 139.383 112.766C140.43 112.359 141.328 111.688 142.078 110.75L145.664 115.016C145.148 115.75 144.414 116.461 143.461 117.148C142.523 117.836 141.398 118.398 140.086 118.836C138.773 119.258 137.305 119.469 135.68 119.469ZM160.266 113.375C161 113.375 161.625 113.242 162.141 112.977C162.672 112.695 163.07 112.305 163.336 111.805C163.617 111.289 163.75 110.672 163.734 109.953H171.164C171.18 111.859 170.711 113.531 169.758 114.969C168.82 116.391 167.539 117.5 165.914 118.297C164.305 119.078 162.484 119.469 160.453 119.469C158.469 119.469 156.734 119.148 155.25 118.508C153.766 117.852 152.523 116.945 151.523 115.789C150.539 114.617 149.797 113.25 149.297 111.688C148.812 110.125 148.57 108.43 148.57 106.602V106.062C148.57 104.234 148.812 102.539 149.297 100.977C149.797 99.3984 150.539 98.0312 151.523 96.875C152.523 95.7031 153.758 94.7969 155.227 94.1562C156.711 93.5 158.438 93.1719 160.406 93.1719C162.516 93.1719 164.375 93.5703 165.984 94.3672C167.609 95.1641 168.883 96.3203 169.805 97.8359C170.727 99.3516 171.18 101.188 171.164 103.344H163.734C163.75 102.578 163.633 101.891 163.383 101.281C163.133 100.672 162.742 100.188 162.211 99.8281C161.695 99.4531 161.031 99.2656 160.219 99.2656C159.406 99.2656 158.75 99.4453 158.25 99.8047C157.75 100.164 157.367 100.664 157.102 101.305C156.852 101.93 156.68 102.648 156.586 103.461C156.508 104.273 156.469 105.141 156.469 106.062V106.602C156.469 107.539 156.508 108.422 156.586 109.25C156.68 110.062 156.859 110.781 157.125 111.406C157.391 112.016 157.773 112.5 158.273 112.859C158.773 113.203 159.438 113.375 160.266 113.375ZM182.273 83V119H174.375V83H182.273ZM181.336 105.453L179.484 105.5C179.484 103.719 179.703 102.078 180.141 100.578C180.578 99.0781 181.203 97.7734 182.016 96.6641C182.828 95.5547 183.805 94.6953 184.945 94.0859C186.086 93.4766 187.352 93.1719 188.742 93.1719C189.992 93.1719 191.133 93.3516 192.164 93.7109C193.211 94.0703 194.109 94.6484 194.859 95.4453C195.625 96.2422 196.211 97.2812 196.617 98.5625C197.039 99.8438 197.25 101.406 197.25 103.25V119H189.305V103.203C189.305 102.172 189.156 101.375 188.859 100.812C188.578 100.234 188.172 99.8359 187.641 99.6172C187.109 99.3828 186.461 99.2656 185.695 99.2656C184.773 99.2656 184.023 99.4219 183.445 99.7344C182.867 100.047 182.422 100.484 182.109 101.047C181.812 101.594 181.609 102.242 181.5 102.992C181.391 103.742 181.336 104.562 181.336 105.453ZM231.539 109.93C231.539 109.398 231.461 108.922 231.305 108.5C231.148 108.062 230.859 107.656 230.438 107.281C230.016 106.906 229.406 106.531 228.609 106.156C227.828 105.766 226.797 105.359 225.516 104.938C224.016 104.438 222.57 103.875 221.18 103.25C219.789 102.609 218.547 101.867 217.453 101.023C216.359 100.164 215.492 99.1641 214.852 98.0234C214.211 96.8672 213.891 95.5234 213.891 93.9922C213.891 92.5234 214.219 91.2031 214.875 90.0312C215.531 88.8438 216.445 87.8359 217.617 87.0078C218.805 86.1641 220.195 85.5234 221.789 85.0859C223.383 84.6328 225.125 84.4062 227.016 84.4062C229.516 84.4062 231.719 84.8438 233.625 85.7188C235.547 86.5781 237.047 87.8047 238.125 89.3984C239.219 90.9766 239.766 92.8438 239.766 95H231.586C231.586 94.1406 231.406 93.3828 231.047 92.7266C230.703 92.0703 230.18 91.5547 229.477 91.1797C228.773 90.8047 227.891 90.6172 226.828 90.6172C225.797 90.6172 224.93 90.7734 224.227 91.0859C223.523 91.3984 222.992 91.8203 222.633 92.3516C222.273 92.8672 222.094 93.4375 222.094 94.0625C222.094 94.5781 222.234 95.0469 222.516 95.4688C222.812 95.875 223.227 96.2578 223.758 96.6172C224.305 96.9766 224.961 97.3203 225.727 97.6484C226.508 97.9766 227.383 98.2969 228.352 98.6094C230.164 99.1875 231.773 99.8359 233.18 100.555C234.602 101.258 235.797 102.062 236.766 102.969C237.75 103.859 238.492 104.875 238.992 106.016C239.508 107.156 239.766 108.445 239.766 109.883C239.766 111.414 239.469 112.773 238.875 113.961C238.281 115.148 237.43 116.156 236.32 116.984C235.211 117.797 233.883 118.414 232.336 118.836C230.789 119.258 229.062 119.469 227.156 119.469C225.406 119.469 223.68 119.25 221.977 118.812C220.289 118.359 218.758 117.672 217.383 116.75C216.008 115.812 214.906 114.617 214.078 113.164C213.266 111.695 212.859 109.953 212.859 107.938H221.109C221.109 108.938 221.242 109.781 221.508 110.469C221.773 111.156 222.164 111.711 222.68 112.133C223.195 112.539 223.828 112.836 224.578 113.023C225.328 113.195 226.188 113.281 227.156 113.281C228.203 113.281 229.047 113.133 229.688 112.836C230.328 112.523 230.797 112.117 231.094 111.617C231.391 111.102 231.539 110.539 231.539 109.93ZM256.992 93.6406V99.125H241.711V93.6406H256.992ZM244.922 87.3359H252.82V110.727C252.82 111.398 252.898 111.922 253.055 112.297C253.211 112.656 253.477 112.914 253.852 113.07C254.242 113.211 254.758 113.281 255.398 113.281C255.852 113.281 256.227 113.273 256.523 113.258C256.82 113.227 257.102 113.188 257.367 113.141V118.789C256.695 119.008 255.992 119.172 255.258 119.281C254.523 119.406 253.742 119.469 252.914 119.469C251.227 119.469 249.781 119.203 248.578 118.672C247.391 118.141 246.484 117.305 245.859 116.164C245.234 115.023 244.922 113.539 244.922 111.711V87.3359ZM273.305 112.625V102.172C273.305 101.453 273.203 100.836 273 100.32C272.797 99.8047 272.477 99.4062 272.039 99.125C271.602 98.8281 271.016 98.6797 270.281 98.6797C269.688 98.6797 269.18 98.7812 268.758 98.9844C268.336 99.1875 268.016 99.4922 267.797 99.8984C267.578 100.305 267.469 100.82 267.469 101.445H259.57C259.57 100.273 259.828 99.1875 260.344 98.1875C260.875 97.1719 261.625 96.2891 262.594 95.5391C263.578 94.7891 264.75 94.2109 266.109 93.8047C267.484 93.3828 269.016 93.1719 270.703 93.1719C272.719 93.1719 274.516 93.5078 276.094 94.1797C277.688 94.8516 278.945 95.8594 279.867 97.2031C280.789 98.5312 281.25 100.203 281.25 102.219V112.602C281.25 114.258 281.344 115.516 281.531 116.375C281.719 117.219 281.984 117.961 282.328 118.602V119H274.406C274.031 118.219 273.75 117.266 273.562 116.141C273.391 115 273.305 113.828 273.305 112.625ZM274.266 103.508L274.312 107.727H270.82C270.086 107.727 269.461 107.828 268.945 108.031C268.445 108.234 268.039 108.516 267.727 108.875C267.43 109.219 267.211 109.609 267.07 110.047C266.945 110.484 266.883 110.945 266.883 111.43C266.883 111.898 266.992 112.32 267.211 112.695C267.445 113.055 267.758 113.336 268.148 113.539C268.539 113.742 268.977 113.844 269.461 113.844C270.336 113.844 271.078 113.68 271.688 113.352C272.312 113.008 272.789 112.594 273.117 112.109C273.445 111.625 273.609 111.172 273.609 110.75L275.344 113.984C275.031 114.609 274.672 115.242 274.266 115.883C273.875 116.523 273.383 117.117 272.789 117.664C272.211 118.195 271.5 118.633 270.656 118.977C269.812 119.305 268.789 119.469 267.586 119.469C266.023 119.469 264.586 119.148 263.273 118.508C261.977 117.867 260.938 116.977 260.156 115.836C259.375 114.68 258.984 113.352 258.984 111.852C258.984 110.539 259.219 109.367 259.688 108.336C260.172 107.305 260.898 106.43 261.867 105.711C262.836 104.992 264.07 104.445 265.57 104.07C267.07 103.695 268.836 103.508 270.867 103.508H274.266ZM296.344 113.375C297.078 113.375 297.703 113.242 298.219 112.977C298.75 112.695 299.148 112.305 299.414 111.805C299.695 111.289 299.828 110.672 299.812 109.953H307.242C307.258 111.859 306.789 113.531 305.836 114.969C304.898 116.391 303.617 117.5 301.992 118.297C300.383 119.078 298.562 119.469 296.531 119.469C294.547 119.469 292.812 119.148 291.328 118.508C289.844 117.852 288.602 116.945 287.602 115.789C286.617 114.617 285.875 113.25 285.375 111.688C284.891 110.125 284.648 108.43 284.648 106.602V106.062C284.648 104.234 284.891 102.539 285.375 100.977C285.875 99.3984 286.617 98.0312 287.602 96.875C288.602 95.7031 289.836 94.7969 291.305 94.1562C292.789 93.5 294.516 93.1719 296.484 93.1719C298.594 93.1719 300.453 93.5703 302.062 94.3672C303.688 95.1641 304.961 96.3203 305.883 97.8359C306.805 99.3516 307.258 101.188 307.242 103.344H299.812C299.828 102.578 299.711 101.891 299.461 101.281C299.211 100.672 298.82 100.188 298.289 99.8281C297.773 99.4531 297.109 99.2656 296.297 99.2656C295.484 99.2656 294.828 99.4453 294.328 99.8047C293.828 100.164 293.445 100.664 293.18 101.305C292.93 101.93 292.758 102.648 292.664 103.461C292.586 104.273 292.547 105.141 292.547 106.062V106.602C292.547 107.539 292.586 108.422 292.664 109.25C292.758 110.062 292.938 110.781 293.203 111.406C293.469 112.016 293.852 112.5 294.352 112.859C294.852 113.203 295.516 113.375 296.344 113.375ZM318.586 82.9766V119H310.688V82.9766H318.586ZM334.805 93.6406L323.789 106.555L318.023 112.32L314.578 107.305L319.383 101.047L325.336 93.6406H334.805ZM326.344 119L319.57 107.445L325.406 103.297L335.391 119H326.344Z" fill="black"/>
<path d="M1134 0H1348C1356.28 0 1363 6.71573 1363 15V148C1363 156.284 1356.28 163 1348 163H1134V0Z" fill="#DD2A7B"/>
<path fill-rule="evenodd" clip-rule="evenodd" d="M1218.75 53C1218.62 53 1218.49 53.0527 1218.4 53.1464C1218.3 53.2402 1218.25 53.3674 1218.25 53.5V109.5C1218.25 109.633 1218.3 109.76 1218.4 109.854C1218.49 109.947 1218.62 110 1218.75 110H1278.25C1278.38 110 1278.51 109.947 1278.6 109.854C1278.7 109.76 1278.75 109.633 1278.75 109.5V64C1278.75 63.8674 1278.7 63.7402 1278.6 63.6464C1278.51 63.5527 1278.38 63.5 1278.25 63.5H1248.5C1247.61 63.5 1246.77 63.1045 1246.2 62.4206L1238.34 53H1218.75ZM1214.15 48.9038C1215.37 47.6848 1217.03 47 1218.75 47H1239.75C1240.64 47 1241.48 47.3955 1242.05 48.0794L1249.91 57.5H1278.25C1279.97 57.5 1281.63 58.1848 1282.85 59.4038C1284.07 60.6228 1284.75 62.2761 1284.75 64V109.5C1284.75 111.224 1284.07 112.877 1282.85 114.096C1281.63 115.315 1279.97 116 1278.25 116H1218.75C1217.03 116 1215.37 115.315 1214.15 114.096C1212.93 112.877 1212.25 111.224 1212.25 109.5V53.5C1212.25 51.7761 1212.93 50.1228 1214.15 48.9038Z" fill="white"/>
<path fill-rule="evenodd" clip-rule="evenodd" d="M1243.97 75.5251C1245.34 76.892 1245.34 79.108 1243.97 80.4749L1237.7 86.75L1243.97 93.0251C1245.34 94.392 1245.34 96.608 1243.97 97.9749C1242.61 99.3417 1240.39 99.3417 1239.03 97.9749L1230.28 89.2249C1228.91 87.858 1228.91 85.642 1230.28 84.2751L1239.03 75.5251C1240.39 74.1583 1242.61 74.1583 1243.97 75.5251Z" fill="white"/>
<path fill-rule="evenodd" clip-rule="evenodd" d="M1252.28 97.9749C1250.91 96.608 1250.91 94.392 1252.28 93.0251L1258.55 86.75L1252.28 80.4749C1250.91 79.108 1250.91 76.892 1252.28 75.5251C1253.64 74.1583 1255.86 74.1583 1257.22 75.5251L1265.97 84.2751C1267.34 85.642 1267.34 87.858 1265.97 89.2249L1257.22 97.9749C1255.86 99.3417 1253.64 99.3417 1252.28 97.9749Z" fill="white"/>
</svg>
